<svg width="350" height="72" viewBox="0 0 350 72" fill="none" xmlns="http://www.w3.org/2000/svg">
<path fill-rule="evenodd" clip-rule="evenodd" d="M72.1415 35.887C72.1415 71.6281 72.1433 71.774 72.579 71.774C73.0146 71.774 73.0164 71.6281 73.0164 35.887C73.0164 0.145823 73.0146 0 72.579 0C72.1433 0 72.1415 0.145823 72.1415 35.887ZM255.514 0.514939C251.744 2.43707 253.607 8.01114 257.795 7.34127C261.441 6.75797 261.855 1.85013 258.386 0.324458C257.374 -0.121213 256.669 -0.074732 255.514 0.514939ZM304.53 0.365469C303.401 0.851241 302.836 1.46917 302.446 2.64213C301.251 6.23939 305.797 9.01823 308.483 6.33145C311.271 3.5435 308.136 -1.18663 304.53 0.365469ZM109.997 9.96881C106.518 10.5166 104.485 11.2493 101.901 12.8862C95.0676 17.218 91.8923 27.1057 94.1635 36.9807C96.3098 46.3106 103.344 51.6322 113.608 51.6933C119.515 51.7288 123.597 49.7648 126.887 45.3071C127.571 44.3803 129.035 41.6762 129.035 41.3389C129.035 40.8659 128.116 41.2715 127.761 41.9013C123.863 48.8342 116.736 51.2777 109.401 48.1953C102.495 45.2944 98.5518 36.576 99.9235 27.2433C100.622 22.4859 103.151 18.0201 106.387 15.8254C113.438 11.0452 123.943 13.4877 126.383 20.4744C127.32 23.1576 126.902 25.7313 125.172 27.9232C122.477 31.3364 116.072 30.5991 115.11 26.764C114.501 24.3387 118.279 23.1995 119.01 25.5883C119.073 25.7951 119.383 25.5409 119.913 24.8455C122.495 21.4642 117.464 18.864 114.694 22.1487C111.333 26.1351 114.648 31.7639 120.344 31.7411C125.658 31.7201 129.035 28.1447 129.035 22.5387C129.035 14.0874 120.335 8.34289 109.997 9.96881ZM280.022 9.86218C274.879 10.831 271.775 13.9607 270.427 19.533C270.251 20.2603 270.175 24.5356 270.175 33.6586V46.7426L269.635 47.8253C269.05 49.0001 267.635 50.1102 266.725 50.1102C266.312 50.1102 266.22 50.2113 266.275 50.6023L266.346 51.0954L281.609 51.151L296.871 51.2075V45.6498C296.871 40.7702 296.829 40.0748 296.524 39.9582C295.999 39.7568 295.841 39.9482 295.687 40.9716C295.086 44.9508 292.141 47.9356 288.044 48.7167C286.444 49.022 276.051 49.1587 275.335 48.8834C274.907 48.7194 274.805 21.6729 275.223 19.3516C276.793 10.646 287.806 9.21782 289.881 17.4513C290.484 19.8419 288.903 23.0309 286.82 23.6288C284.477 24.3005 282.957 21.8953 284.692 20.2593L285.424 19.5703L284.469 18.8385C281.816 16.8006 279.143 20.3714 281.076 23.3718C282.693 25.8817 287.614 26.0029 289.767 23.585C294.015 18.8175 290.823 11.1053 284.088 9.86674C282.615 9.59514 281.443 9.59423 280.022 9.86218ZM329.695 9.9679C327.069 10.4282 326.842 10.4983 324.771 11.4927C319.486 14.0309 317.478 19.3525 319.922 24.3469C320.847 26.2372 324.486 29.1035 325.961 29.1035C326.401 29.1035 326.193 29.7305 325.701 29.8855C319.172 31.9361 315.177 37.6678 315.188 44.9681C315.192 47.9082 315.271 48.4423 316.088 51.1145C316.448 52.2884 317.699 54.4302 318.681 55.5539C319.203 56.1491 319.628 56.7406 319.628 56.8691C319.628 56.9967 319.949 57.2664 320.34 57.4679C320.731 57.6693 321.346 58.0575 321.707 58.3309C323.223 59.4793 325.57 60.5338 328.709 61.4771C331.236 62.2363 336.292 62.2199 338.885 61.4433C341.191 60.7534 344.173 59.2214 345.231 58.1833C345.412 58.0056 345.781 57.7075 346.051 57.5207C346.745 57.0422 348.51 53.7958 349.137 51.8455C351.758 43.694 341.771 36.3126 335.532 41.791C332.7 44.2773 333.306 49.4913 336.586 50.8612C339.426 52.0478 342.037 49.5205 340.387 47.18C339.546 45.987 339.542 45.9861 338.92 46.8282C337.875 48.24 335.383 47.3632 335.383 45.5842C335.383 41.6251 341.687 40.2389 345.09 43.4488C349.201 47.3268 346.718 55.3489 340.886 57.0331C340.207 57.2291 339.598 57.4715 339.533 57.5718C338.842 58.6426 330.351 58.5989 330.351 57.5244C330.351 57.4423 329.859 57.2573 329.257 57.1124C326.224 56.3851 322.705 52.6083 321.775 49.0794C319.288 39.6547 325.831 30.6355 335.154 30.6355H336.478V29.541C336.478 28.9394 336.404 28.4436 336.314 28.4391C334.461 28.3525 330.988 27.5623 329.634 26.9198C323.266 23.8985 323.729 14.5823 330.351 12.4606C331.638 12.0486 336.073 12.0404 337.134 12.4487C341.372 14.0792 344.008 16.7487 345.655 21.0805C345.83 21.5417 346.01 21.6766 346.38 21.6237L346.872 21.5544L346.931 16.0542C346.983 11.119 346.952 10.5393 346.629 10.4154C346.254 10.2714 345.669 10.6214 345.669 10.9887C345.669 11.5054 344.748 12.4177 343.968 12.6756C343.035 12.9837 343.241 13.053 339.979 11.3268C338.458 10.522 338.14 10.4227 335.602 9.95423C333.6 9.58512 331.859 9.58876 329.695 9.9679ZM133.412 10.7936C133.412 11.2074 133.588 11.3623 134.299 11.5756C137.044 12.3977 137.126 12.775 137.129 24.4718L137.131 33.7361L138.499 33.6258C139.251 33.5648 140.31 33.4335 140.851 33.3333L141.836 33.1519L141.945 23.6333L142.055 14.1138L142.712 13.1851C143.293 12.3612 144.224 11.7342 145.518 11.2967C145.748 11.2183 145.886 10.9996 145.843 10.7781C145.775 10.4245 145.278 10.3899 139.59 10.3361L133.412 10.2778V10.7936ZM159.163 10.4272C158.73 10.8602 159.061 11.3386 159.946 11.5619C162.511 12.2081 162.953 13.5752 162.953 20.8818C162.953 27.329 163.004 27.134 161.322 27.134C160.321 27.134 158.675 27.4265 156.607 27.9725C155.362 28.3015 153.355 29.098 151.136 30.1434C142.957 33.9995 141.09 34.5791 136.823 34.5892C134.085 34.5946 133.013 34.3713 131.501 33.4791L130.786 33.0571V33.593C130.786 34.4242 132.66 36.216 134.506 37.1511C137.957 38.8973 143.766 38.5464 148.729 36.2916C149.271 36.0456 150.058 35.6901 150.479 35.5024C150.9 35.3137 152.132 34.7478 153.214 34.2428C156.431 32.7454 156.803 32.5859 158.437 32.009C160.41 31.3118 162.285 30.8634 162.645 31.0019C162.864 31.0858 162.922 32.7755 162.911 38.8754C162.894 48.3886 162.762 48.8625 159.834 49.906C159.209 50.1284 159.014 50.318 159.014 50.7017V51.2048H165.36H171.706V50.6579C171.706 50.3317 171.58 50.1102 171.395 50.1102C170.018 50.1102 168.357 48.7604 168.003 47.3532C167.707 46.1803 167.665 31.3054 167.956 31.0147C168.207 30.7641 169.926 31.2498 170.502 31.7338C171.996 32.9906 172.129 31.9461 170.673 30.3886C170.106 29.7816 169.219 29.0379 168.704 28.7362L167.767 28.1866V21.2391C167.767 13.5196 167.773 13.4786 169.228 12.2783C169.657 11.9256 170.346 11.5729 170.761 11.4954C171.378 11.3797 171.501 11.2675 171.445 10.8738C171.377 10.3917 159.626 9.96425 159.163 10.4272ZM192.756 10.5475C192.611 10.6915 192.494 10.9394 192.494 11.0971C192.494 11.2557 192.405 11.5555 192.298 11.7652C192.191 11.9739 191.739 13.1295 191.295 14.3335C190.851 15.5365 190.407 16.7186 190.309 16.9592C190.211 17.1998 190.007 17.7412 189.857 18.1622C189.707 18.5833 189.459 19.224 189.306 19.5849C189.013 20.283 188.686 21.1625 187.233 25.1645C186.73 26.5489 186.189 27.9314 186.029 28.2368C185.583 29.0916 185.059 30.7139 185.187 30.8415C185.47 31.125 187.141 31.4795 187.326 31.2954C187.546 31.0748 188.534 28.4382 188.72 27.5714C188.785 27.2707 188.907 26.9754 188.992 26.9152C189.178 26.7822 190.524 23.3098 190.524 22.9616C190.524 22.8258 190.663 22.4038 190.831 22.0247C191.001 21.6456 191.428 20.5528 191.783 19.5958C192.601 17.3839 192.756 17.3566 193.476 19.3006C193.801 20.1791 194.251 21.3056 194.474 21.8032C194.697 22.3018 194.942 22.9908 195.016 23.3353C195.169 24.0362 195.189 24.0863 196.295 26.7393C196.732 27.7856 197.089 28.7471 197.089 28.8757C197.089 29.0042 197.182 29.2803 197.295 29.489C197.409 29.6986 197.86 30.8543 198.299 32.0573C198.738 33.2613 199.178 34.4424 199.276 34.683C200.383 37.3899 200.309 37.6861 198.704 36.9743C198.116 36.7136 197.439 36.4129 197.198 36.3071C196.958 36.2014 195.529 35.6318 194.025 35.0403C192.521 34.4488 190.896 33.7935 190.415 33.5839C181.973 29.9101 175.628 30.1306 174.55 34.1362C174.067 35.9307 174.945 37.8365 176.427 38.2083C177.652 38.5154 180.077 36.9396 179.116 36.4612C178.271 36.0392 177.749 34.91 178.028 34.108C178.901 31.6025 182.611 32.2596 189.32 36.1057C189.801 36.381 190.639 36.8376 191.18 37.1183C192.645 37.8784 200.121 42.9804 200.589 43.539C200.65 43.611 201.217 44.0449 201.849 44.5024C204.524 46.44 204.162 49.2954 201.136 50.1202C200.889 50.1876 200.699 50.4255 200.699 50.667C200.699 51.0808 200.913 51.0972 206.99 51.1528L213.282 51.2111V50.6607C213.282 50.2524 213.166 50.1102 212.835 50.1102C211.31 50.1102 209.826 48.6902 208.915 46.3607C208.521 45.3536 208.077 44.2353 207.929 43.8744C207.779 43.5126 207.534 42.8728 207.384 42.4517C207.234 42.0307 207.029 41.4884 206.93 41.2478C206.831 41.0072 206.389 39.826 205.948 38.6221C205.506 37.419 205.064 36.237 204.964 35.9964C204.864 35.7557 204.52 34.8207 204.2 33.9175C203.6 32.225 203.436 31.7903 203.047 30.8543C202.629 29.8527 202.087 28.3552 201.58 26.8068C201.121 25.4032 200.273 23.1302 197.617 16.1854C197.085 14.7974 196.65 13.5934 196.65 13.5105C196.65 12.8716 195.301 10.5448 194.861 10.4272C194.041 10.2076 193.039 10.2641 192.756 10.5475ZM214.922 10.5794C214.565 11.7059 214.953 21.5544 215.355 21.5544C215.7 21.5544 215.841 21.3147 216.051 20.3678C217.078 15.7425 221.575 12.5626 226.848 12.734L228.927 12.8014L228.983 29.7852C229.042 47.6676 229.054 47.407 228.106 48.6055C227.617 49.2252 226.15 50.1102 225.614 50.1102C225.209 50.1102 225.098 50.2287 225.098 50.6579V51.2048H231.444H237.79V50.6579C237.79 50.2524 237.673 50.1102 237.343 50.1102C236.464 50.1102 235.149 49.227 234.496 48.1972L233.851 47.18V29.9356V12.6921H237.357C241.366 12.6921 242.761 13.104 244.404 14.7709C245.744 16.1335 246.98 19.1165 246.98 20.9948C246.98 21.518 247.075 21.6638 247.418 21.6638C247.844 21.6638 247.855 21.518 247.855 15.9685V10.2723L231.428 10.2996C219.239 10.3206 214.981 10.3926 214.922 10.5794ZM250.773 10.6277C250.607 11.0625 250.828 11.2621 251.835 11.5838C254.764 12.5189 254.64 11.664 254.635 30.7905L254.631 47.1564L254.143 48.0112C253.568 49.0165 252.861 49.5834 251.672 49.9917C251.087 50.1931 250.809 50.4182 250.809 50.6917C250.809 51.0726 251.154 51.0981 257.1 51.1528L263.392 51.2111V50.6607C263.392 50.2505 263.277 50.1102 262.94 50.1102C262.026 50.1102 260.593 49.0174 259.926 47.8126C259.478 47.0051 259.246 16.601 259.671 14.5522C259.971 13.1076 261.082 11.9083 262.436 11.5674C263.229 11.3678 263.392 11.2384 263.392 10.8064V10.2851H257.149C251.681 10.2851 250.888 10.3279 250.773 10.6277ZM299.866 10.4272C299.441 10.852 299.752 11.366 300.519 11.51C301.716 11.7342 303.144 13.2453 303.321 14.4747C303.396 14.9988 303.428 22.6727 303.392 31.5278L303.326 47.6285L302.712 48.4341C302.105 49.2289 300.708 50.1102 300.052 50.1102C299.839 50.1102 299.716 50.3107 299.716 50.6607V51.2111L305.897 51.1528C311.765 51.0981 312.079 51.0744 312.079 50.6871C312.079 50.4128 311.784 50.1603 311.183 49.9206C309.947 49.4275 309.471 49.0375 308.874 48.0258L308.36 47.1564V30.7449C308.36 15.8601 308.394 14.2724 308.723 13.6764C309.268 12.693 310.224 11.8754 311.204 11.5537C311.837 11.3468 312.079 11.1472 312.079 10.831C312.079 10.3871 300.295 9.99706 299.866 10.4272ZM183.522 34.848C183.523 35.105 182.193 38.7688 181.755 39.7167C181.33 40.6344 180.02 44.0995 180.02 44.3055C180.02 46.5284 177.421 49.6353 175.261 49.9944C174.467 50.1266 174.331 50.2259 174.331 50.6771V51.2048H179.364H184.397V50.6853C184.397 50.2934 184.248 50.1348 183.795 50.0436C182.939 49.8705 181.845 48.7148 181.674 47.8007C181.515 46.9549 181.605 46.5074 182.201 45.1868C182.419 44.7056 182.86 43.5235 183.182 42.5611C183.505 41.5987 183.873 40.5643 184.002 40.2635C184.734 38.5565 185.71 35.7995 185.708 35.445C185.706 35.0677 184.752 34.5737 184.025 34.5737C183.748 34.5737 183.522 34.6967 183.522 34.848ZM137.236 39.4979C137.184 39.7385 137.115 41.6096 137.082 43.6548C137.008 48.2664 136.383 49.5679 134.013 50.0446C133.558 50.1357 133.412 50.2925 133.412 50.688V51.2111L139.593 51.1528C145.532 51.0972 145.775 51.079 145.775 50.6734C145.775 50.3945 145.563 50.1949 145.151 50.0847C142.63 49.4102 142.085 48.2418 141.983 43.2857L141.899 39.1963L139.615 39.1279C137.479 39.0641 137.324 39.0887 137.236 39.4979ZM141.179 57.1124C140.688 57.2382 140.908 57.2828 142.055 57.2901C143.095 57.2974 143.446 57.24 143.149 57.1124C142.625 56.8873 142.064 56.8873 141.179 57.1124ZM153.105 57.1124C152.885 57.2546 153.75 57.3184 155.732 57.3065C157.546 57.2947 158.474 57.22 158.139 57.1124C157.353 56.8609 153.495 56.8609 153.105 57.1124ZM133.849 65.3213C133.849 65.5036 133.763 65.8235 133.657 66.0331C133.551 66.2418 133.296 66.9545 133.091 67.6162C132.886 68.2779 132.636 69.017 132.536 69.2576C131.985 70.581 132.164 71.3365 133.027 71.3365C133.362 71.3365 133.409 71.2691 133.228 71.0512C132.612 70.3085 133.174 69.8045 134.617 69.8045C136.11 69.8045 136.468 70.0925 136.019 70.9328C135.71 71.5097 135.797 71.5662 136.746 71.4121C137.394 71.3073 137.506 71.218 137.352 70.9273C137.248 70.7304 137.091 70.3732 137.002 70.1326C136.913 69.892 136.678 69.2522 136.479 68.7108C136.037 67.5068 135.381 67.2398 135.381 68.2633C135.381 69.0243 135.012 69.2676 134.177 69.058C133.62 68.9186 133.413 68.2141 133.849 67.9443C133.969 67.8696 134.068 67.608 134.068 67.361C134.068 67.1149 134.314 66.621 134.615 66.2637C135.355 65.3833 135.321 64.9905 134.505 64.9905C134.065 64.9905 133.849 65.0989 133.849 65.3213ZM141.289 65.8654C140.232 66.9226 139.912 69.8045 140.851 69.8045C141.237 69.8045 141.289 69.6586 141.289 68.5896C141.289 66.765 142.215 65.4279 143.477 65.4279C144.066 65.4279 145.009 66.0495 145.009 66.4378C145.009 66.6046 145.157 66.7413 145.337 66.7413C145.881 66.7413 145.73 65.7387 145.126 65.3441C144.031 64.6268 142.291 64.8629 141.289 65.8654ZM148.948 65.1855C148.948 65.2931 149.096 65.438 149.276 65.5072C149.541 65.6084 149.604 66.1124 149.604 68.1293C149.604 70.0815 149.532 70.6858 149.276 70.8981C148.508 71.5361 150.125 71.877 151.197 71.3037L151.667 71.0522L151.183 70.8726C150.334 70.5591 150.468 68.4911 151.337 68.4911C152.818 68.4911 153.16 67.896 151.738 67.793L150.807 67.7256L150.741 66.6866L150.674 65.6467H151.453C151.998 65.6467 152.23 65.5492 152.23 65.3186C152.23 65.0561 151.902 64.9905 150.589 64.9905C149.686 64.9905 148.948 65.078 148.948 65.1855Z" fill="#6C63FF"/>
<path fill-rule="evenodd" clip-rule="evenodd" d="M72.0293 35.887C72.0293 55.6852 72.0548 63.7838 72.0867 53.8852C72.1177 43.9865 72.1177 27.7875 72.0867 17.8888C72.0548 7.99019 72.0293 16.0888 72.0293 35.887ZM73.123 35.887C73.123 55.6852 73.1494 63.7838 73.1804 53.8852C73.2123 43.9865 73.2123 27.7875 73.1804 17.8888C73.1494 7.99019 73.123 16.0888 73.123 35.887ZM255.404 0.344522C253.825 1.16569 253.259 2.17733 253.382 3.96001L253.464 5.143L253.504 3.8069C253.554 2.15454 254.122 1.22492 255.514 0.514949C256.056 0.238797 256.4 0.010038 256.28 0.00821519C256.16 0.00548102 255.765 0.156775 255.404 0.344522ZM258.382 0.291655C258.695 0.43201 259.114 0.682643 259.311 0.847605C259.509 1.01257 259.671 1.04903 259.671 0.926902C259.671 0.705433 258.344 -0.0154796 257.997 0.018242C257.895 0.0273559 258.068 0.151301 258.382 0.291655ZM304.366 0.226037C303.633 0.520416 303.77 0.669884 304.53 0.404669C304.891 0.278897 305.186 0.136719 305.186 0.0884154C305.186 -0.0419137 304.92 0.00274538 304.366 0.226037ZM307.209 0.28619C307.539 0.441127 308.167 0.90776 308.606 1.32336C309.297 1.97865 309.353 2.00143 309.03 1.49287C308.601 0.818441 307.941 0.342699 307.156 0.143104C306.647 0.0145973 306.651 0.0246205 307.209 0.28619ZM259.892 1.14381C259.891 1.23131 260.087 1.62503 260.328 2.01875C260.567 2.41338 260.764 2.63667 260.763 2.51637C260.763 2.39606 260.567 2.00234 260.328 1.64143C260.089 1.28052 259.893 1.05632 259.892 1.14381ZM302.329 2.33136C302.208 2.65035 302.14 3.00761 302.18 3.12518C302.219 3.24275 302.361 2.98117 302.495 2.54462C302.777 1.62776 302.655 1.47191 302.329 2.33136ZM309.453 3.72031C309.453 4.53966 309.525 5.09652 309.614 4.95799C309.702 4.81854 309.775 4.26168 309.775 3.72031C309.775 3.17895 309.702 2.62209 309.614 2.48265C309.525 2.34412 309.453 2.90097 309.453 3.72031ZM260.821 3.82968C260.823 4.3109 260.868 4.48224 260.92 4.20973C260.973 3.93814 260.971 3.54351 260.916 3.3348C260.862 3.12518 260.819 3.34847 260.821 3.82968ZM302.343 5.18948C302.338 6.54928 305.867 8.26361 307.08 7.49166C307.219 7.40325 306.727 7.33034 305.986 7.33034C304.464 7.33034 303.495 6.81176 302.758 5.60416C302.53 5.23049 302.343 5.04366 302.343 5.18948ZM253.863 5.80923C254.65 7.18907 256.805 8.02482 258.139 7.46614C258.608 7.2711 258.559 7.25561 257.802 7.35951C256.393 7.55363 255.213 7.11981 254.292 6.06715C253.645 5.32802 253.559 5.27606 253.863 5.80923ZM308.38 6.39799C307.572 7.24012 307.663 7.34675 308.544 6.58847C308.891 6.28953 309.475 5.43738 309.297 5.48933C309.263 5.49935 308.85 5.90857 308.38 6.39799ZM259.453 6.59759C259.032 6.96761 258.885 7.16902 259.127 7.0469C259.526 6.84457 260.518 5.89581 260.307 5.91768C260.258 5.92224 259.874 6.22847 259.453 6.59759ZM109.341 9.85581C108.998 9.97065 109.324 9.99252 110.217 9.91414C110.999 9.84579 111.679 9.75282 111.73 9.70907C111.909 9.55049 109.878 9.67535 109.341 9.85581ZM114.61 9.7109C114.661 9.75647 115.392 9.84852 116.234 9.91505C117.2 9.99252 117.523 9.97156 117.11 9.85854C116.444 9.67809 114.444 9.55961 114.61 9.7109ZM279.256 9.85308C278.964 9.9825 279.146 10.0035 279.803 9.91687C280.344 9.84487 280.828 9.751 280.879 9.70725C281.069 9.5432 279.674 9.66806 279.256 9.85308ZM283.851 9.84761C284.212 9.93874 284.705 10.0189 284.945 10.0244L285.383 10.0354L284.945 9.84761C284.705 9.74371 284.212 9.6635 283.851 9.66988L283.194 9.67991L283.851 9.84761ZM329.038 9.85854C328.684 9.97976 328.954 10.0007 329.804 9.9187C330.526 9.84943 331.158 9.75555 331.208 9.70998C331.385 9.5514 329.578 9.67444 329.038 9.85854ZM334.308 9.70816C334.358 9.75191 334.94 9.8467 335.602 9.91961C336.389 10.0053 336.654 9.98249 336.369 9.8549C335.954 9.66989 334.114 9.53864 334.308 9.70816ZM107.262 10.2851L106.824 10.4728H107.262C107.503 10.4728 107.897 10.3881 108.138 10.2851L108.575 10.0964H108.138C107.897 10.0964 107.503 10.1812 107.262 10.2851ZM118.313 10.2851C118.493 10.4017 118.838 10.492 119.078 10.4847L119.516 10.4728L119.078 10.2851C118.425 10.0035 117.878 10.0035 118.313 10.2851ZM133.277 10.3817C133.085 10.8793 133.276 11.4808 133.633 11.5073C133.823 11.5209 133.844 11.4927 133.685 11.4389C133.535 11.3879 133.412 11.1062 133.412 10.8128V10.2778L139.59 10.3361C145.281 10.3899 145.775 10.4245 145.843 10.7781C145.889 11.016 145.723 11.2448 145.408 11.3778L144.9 11.5938L145.445 11.541C146.06 11.4817 146.285 10.8775 145.876 10.3835C145.484 9.91232 133.457 9.90959 133.277 10.3817ZM158.889 10.5977C158.725 11.2512 158.914 11.6066 159.409 11.5729C159.73 11.5501 159.726 11.5337 159.384 11.4444C159.125 11.3778 159.011 11.1782 159.055 10.8684C159.162 10.1192 171.337 10.1192 171.444 10.8684C171.485 11.1527 171.374 11.3842 171.167 11.448C170.904 11.5282 170.913 11.5446 171.209 11.5182C171.485 11.4927 171.595 11.2949 171.595 10.8292V10.1757L165.309 10.1174L159.024 10.0591L158.889 10.5977ZM192.695 10.4491C192.448 10.7745 192.451 10.7909 192.711 10.5585C193.484 9.86948 195.394 10.3771 195.737 11.3633C195.867 11.7333 196.023 12.0359 196.087 12.0359C196.213 12.0359 195.908 11.1618 195.548 10.4892C195.237 9.90594 193.128 9.87677 192.695 10.4491ZM214.858 10.327C214.561 10.6241 214.464 21.6638 214.758 21.6638C214.848 21.6638 214.923 19.1283 214.923 16.0287V10.3944L231.385 10.3325L247.848 10.2705L247.912 15.912L247.975 21.5544L247.97 15.8646L247.964 10.1757L231.543 10.1192C218.953 10.0764 215.06 10.1247 214.858 10.327ZM250.844 10.2267C250.788 10.3188 253.588 10.3671 257.067 10.3334L263.392 10.2723V10.8091C263.392 11.1053 263.242 11.3933 263.059 11.4498C262.827 11.5218 262.843 11.5428 263.114 11.5182C263.39 11.4927 263.501 11.2949 263.501 10.8292V10.1757L257.224 10.1174C253.773 10.0855 250.902 10.1347 250.844 10.2267ZM277.615 10.2851C277.323 10.4737 277.323 10.4974 277.615 10.4974C277.795 10.4974 278.091 10.4017 278.271 10.2851C278.563 10.0964 278.563 10.0727 278.271 10.0727C278.091 10.0727 277.795 10.1684 277.615 10.2851ZM299.581 10.3817C299.39 10.8793 299.58 11.4808 299.938 11.5073C300.154 11.5227 300.166 11.4991 299.977 11.4362C299.819 11.3842 299.721 11.129 299.758 10.8684C299.851 10.2131 311.871 9.99252 312.12 10.6414C312.207 10.8665 312.101 11.1245 311.841 11.3213C311.432 11.6303 311.432 11.6358 311.86 11.5601C312.378 11.4699 312.589 10.5339 312.153 10.2586C311.597 9.90594 299.719 10.0226 299.581 10.3817ZM327.178 10.2851L326.741 10.4728L327.178 10.4847C327.419 10.492 327.763 10.4017 327.944 10.2851C328.378 10.0035 327.833 10.0035 327.178 10.2851ZM337.353 10.2851C337.533 10.4017 337.878 10.492 338.119 10.4847L338.557 10.4728L338.119 10.2851C337.465 10.0035 336.918 10.0035 337.353 10.2851ZM345.797 10.2532C345.733 10.3562 345.574 10.7235 345.442 11.0698C345.177 11.7679 345.375 11.6595 345.769 10.8902C345.937 10.5621 346.19 10.4127 346.515 10.4482C346.798 10.4801 346.949 10.4099 346.872 10.2842C346.707 10.0171 345.956 9.99525 345.797 10.2532ZM119.626 10.5676C119.794 10.749 122.033 11.6057 122.033 11.4881C122.033 11.376 120.891 10.8729 120.044 10.6123C119.753 10.523 119.566 10.5029 119.626 10.5676ZM276.411 10.8474C276.05 11.0342 275.656 11.2885 275.536 11.4125C275.416 11.5355 275.736 11.4216 276.247 11.1573C276.759 10.8939 277.177 10.6387 277.177 10.5913C277.177 10.4601 277.123 10.4783 276.411 10.8474ZM324.881 11.1764C323.187 11.9775 321.458 13.2671 320.741 14.266C320.419 14.7144 320.712 14.5048 321.512 13.7146C322.412 12.8233 323.395 12.148 324.771 11.4717C325.854 10.9404 326.642 10.5047 326.521 10.5047C326.401 10.5047 325.663 10.8064 324.881 11.1764ZM338.718 10.6241C338.808 10.7153 339.3 10.9777 339.813 11.2065C340.325 11.4362 340.647 11.5246 340.526 11.4034C340.406 11.2821 339.913 11.0197 339.432 10.8201C338.951 10.6205 338.63 10.533 338.718 10.6241ZM288.896 12.1571C289.505 12.7522 290.177 13.485 290.39 13.7857C290.767 14.318 290.767 14.3153 290.403 13.6764C289.916 12.8206 289.261 12.1024 288.447 11.5337C288.079 11.2767 288.275 11.5501 288.896 12.1571ZM143.914 11.952C143.614 12.1407 143.18 12.5563 142.95 12.8762C142.569 13.4066 142.598 13.3984 143.278 12.775C143.688 12.4004 144.221 11.9848 144.462 11.8518C144.703 11.7196 144.801 11.6112 144.681 11.6102C144.561 11.6102 144.215 11.7634 143.914 11.952ZM160.782 12.0951C161.187 12.3694 161.743 12.9254 162.017 13.331C162.291 13.7374 162.515 13.9434 162.515 13.7894C162.515 13.4257 160.687 11.5975 160.323 11.5975C160.169 11.5975 160.375 11.8217 160.782 12.0951ZM252.339 11.8673C252.579 12.0195 253.113 12.4897 253.525 12.9108C253.938 13.3319 254.169 13.4786 254.039 13.2362C253.742 12.6802 253.153 12.1635 252.45 11.8399C251.98 11.6239 251.965 11.6276 252.339 11.8673ZM261.422 11.9584C260.646 12.4524 259.94 13.3875 259.779 14.133C259.666 14.6579 259.716 14.616 260.065 13.8951C260.491 13.0165 261.156 12.3029 261.969 11.8536C262.21 11.7196 262.308 11.6112 262.188 11.6102C262.067 11.6102 261.723 11.7661 261.422 11.9584ZM309.808 12.3658C308.881 13.2034 308.371 14.1804 308.534 14.8083C308.606 15.0899 308.644 15.0398 308.662 14.6388C308.696 13.8842 309.506 12.7121 310.421 12.0951C310.827 11.8217 311.047 11.5975 310.909 11.5975C310.771 11.5975 310.275 11.9438 309.808 12.3658ZM341.292 12.0158C341.593 12.2619 341.937 12.4642 342.058 12.4651C342.292 12.4669 341.896 12.1635 341.183 11.7943C340.892 11.644 340.928 11.7187 341.292 12.0158ZM102.175 12.4979C101.429 12.9755 101.187 13.2963 101.846 12.9345C102.349 12.6583 103.135 12.0504 102.995 12.0459C102.935 12.0441 102.566 12.2482 102.175 12.4979ZM123.127 12.0942C123.127 12.1416 123.52 12.4979 124.002 12.8844C124.484 13.2717 124.875 13.5096 124.873 13.413C124.868 13.2416 123.127 11.9256 123.127 12.0942ZM168.754 12.6893C168.408 13.0493 168.168 13.3783 168.22 13.4212C168.271 13.464 168.594 13.1696 168.937 12.7677C169.711 11.8581 169.596 11.8098 168.754 12.6893ZM273.431 13.0931C272.529 14.1029 271.562 15.5365 271.781 15.5365C271.836 15.5365 272.196 15.0444 272.581 14.4428C272.968 13.8413 273.581 13.0995 273.945 12.7932C274.308 12.487 274.557 12.1871 274.497 12.127C274.438 12.0678 273.957 12.5016 273.431 13.0931ZM280.709 12.2728C279.747 12.5672 279.933 12.7495 280.91 12.4697C281.838 12.2036 283.789 12.199 284.918 12.4615C285.506 12.5982 285.695 12.5882 285.537 12.4296C285.221 12.1142 281.609 11.9967 280.709 12.2728ZM331.051 12.2509C330.653 12.3457 330.26 12.4952 330.176 12.5845C330.092 12.6738 330.269 12.6675 330.569 12.5718C330.87 12.4752 332.101 12.3302 333.305 12.25L335.493 12.1042L333.634 12.0924C332.61 12.086 331.448 12.1571 331.051 12.2509ZM135.986 12.8014C136.219 13.1623 136.519 13.6545 136.653 13.8951C136.833 14.215 136.901 14.2423 136.906 13.9963C136.91 13.8113 136.61 13.3191 136.239 12.9026C135.623 12.2099 135.602 12.2017 135.986 12.8014ZM191.711 12.6055C191.636 12.8333 191.334 13.6472 191.04 14.4146C190.745 15.1811 190.542 15.8464 190.589 15.8929C190.635 15.9394 190.987 15.1756 191.371 14.195C191.754 13.2152 192.019 12.363 191.958 12.302C191.897 12.2418 191.785 12.3776 191.711 12.6055ZM335.62 12.333C335.671 12.3758 336.106 12.4715 336.587 12.5453C337.183 12.6365 337.357 12.6128 337.134 12.4706C336.835 12.2792 335.408 12.1498 335.62 12.333ZM342.808 12.775C343.086 12.899 343.437 12.899 343.715 12.775C344.084 12.611 343.999 12.5727 343.261 12.5727C342.524 12.5727 342.439 12.611 342.808 12.775ZM224.003 12.9126C223.78 13.0584 224.022 13.0821 224.77 12.9883C225.371 12.9117 225.904 12.8133 225.954 12.7704C226.172 12.5827 224.299 12.7194 224.003 12.9126ZM228.549 12.8552C228.771 13.0129 228.816 16.5163 228.768 30.2528C228.735 39.7139 228.782 47.3204 228.874 47.1582C229.227 46.5266 228.957 12.8461 228.599 12.7486C228.35 12.6802 228.339 12.7066 228.549 12.8552ZM233.903 29.8253C233.85 47.3551 233.889 48.3594 234.63 48.3594C234.691 48.3594 234.614 48.1379 234.46 47.8672C234.24 47.4826 234.154 43.5828 234.067 29.9784L233.955 12.5827L233.903 29.8253ZM239.339 12.7704C239.389 12.8133 239.922 12.9117 240.525 12.9883C241.271 13.0821 241.515 13.0584 241.29 12.9126C240.994 12.7194 239.122 12.5827 239.339 12.7704ZM278.289 13.7028C277.67 14.2578 277.062 14.9058 276.936 15.141C276.81 15.3761 277.182 15.089 277.762 14.5021C278.343 13.9152 279.065 13.2726 279.366 13.0748C279.666 12.8771 279.8 12.7094 279.663 12.703C279.525 12.6975 278.907 13.1468 278.289 13.7028ZM286.83 13.3173C287.372 13.6609 288.13 14.3235 288.514 14.7892C288.898 15.2549 289.212 15.562 289.212 15.4718C289.212 15.1701 287.383 13.3191 286.772 13.0038C285.757 12.4779 285.79 12.6574 286.83 13.3173ZM98.8853 15.2203C97.7488 16.3695 96.8811 17.373 96.9577 17.4495C97.0343 17.5261 97.2548 17.3484 97.4489 17.0549C97.6422 16.7614 98.5836 15.758 99.5415 14.8256C100.499 13.8924 101.208 13.1295 101.117 13.1295C101.026 13.1295 100.022 14.0701 98.8853 15.2203ZM222.472 13.3483C222.18 13.5369 222.18 13.5606 222.472 13.5606C222.652 13.5606 222.948 13.4649 223.128 13.3483C223.42 13.1596 223.42 13.1359 223.128 13.1359C222.948 13.1359 222.652 13.2316 222.472 13.3483ZM339.89 13.9717C341.1 14.76 343.1 16.7004 343.985 17.9435C344.353 18.4612 344.353 18.4521 343.982 17.7676C343.234 16.3878 339.593 13.1295 338.799 13.1295C338.689 13.1295 339.179 13.5087 339.89 13.9717ZM113.561 13.5105C114.258 13.5542 115.34 13.5533 115.968 13.5096C116.595 13.4649 116.026 13.4294 114.703 13.4303C113.378 13.4303 112.865 13.4667 113.561 13.5105ZM196.658 13.567C196.658 13.7475 196.753 14.0427 196.87 14.2241C197.058 14.5158 197.081 14.5158 197.081 14.2241C197.081 14.0427 196.987 13.7475 196.87 13.567C196.681 13.2754 196.658 13.2754 196.658 13.567ZM110.465 13.8185C110.062 13.9343 109.769 14.0683 109.817 14.1157C109.864 14.164 110.393 14.0683 110.989 13.9042C111.587 13.7402 111.879 13.6062 111.638 13.6062C111.398 13.6062 110.87 13.7019 110.465 13.8185ZM117.766 13.752C118.442 14.0418 119.577 14.266 119.187 14.0327C119.007 13.9252 118.515 13.7748 118.094 13.701C117.577 13.6089 117.47 13.6262 117.766 13.752ZM221.268 13.9106C220.907 14.0974 220.513 14.3544 220.393 14.4802C220.273 14.606 220.593 14.4994 221.104 14.2433C221.615 13.9872 222.034 13.7301 222.034 13.6718C222.034 13.5214 221.994 13.5333 221.268 13.9106ZM242.822 13.6071C244.578 15.2002 245.252 15.758 244.901 15.326C244.338 14.6324 243.702 14.061 243.15 13.7529C242.91 13.618 242.762 13.5524 242.822 13.6071ZM327.115 14.5267C326.192 15.5283 325.689 16.3622 325.452 17.2873C325.374 17.5881 325.55 17.3247 325.842 16.7022C326.134 16.0788 326.788 15.1191 327.296 14.5686C327.803 14.0181 328.169 13.567 328.109 13.567C328.049 13.567 327.602 13.999 327.115 14.5267ZM167.912 13.9316C167.832 14.0118 167.767 17.2527 167.767 21.1325V28.1866L168.703 28.7362C170.525 29.8035 172.711 32.7263 171.322 32.2378C171.023 32.1321 170.995 32.163 171.193 32.3781C171.523 32.7354 171.924 32.4829 171.924 31.9188C171.924 31.372 169.786 29.099 168.744 28.5375L167.974 28.1228L168.034 20.9538C168.067 17.0112 168.086 13.7857 168.076 13.7857C168.066 13.7857 167.993 13.8514 167.912 13.9316ZM254.355 14.6725C254.424 15.2084 254.516 15.6869 254.559 15.737C254.738 15.9421 254.617 14.3089 254.432 14.0163C254.301 13.8113 254.275 14.0428 254.355 14.6725ZM162.694 20.459L162.764 26.6801L162.256 26.7922C161.977 26.8542 161.453 26.9417 161.092 26.9863C160.639 27.0428 160.743 27.0784 161.431 27.1012C161.979 27.1194 162.545 27.0164 162.69 26.8715C162.977 26.5844 163.053 15.3223 162.773 14.6133C162.691 14.4064 162.655 17.0367 162.694 20.459ZM303.321 30.7449C303.321 39.7714 303.348 43.4953 303.381 39.0213C303.414 34.5473 303.415 27.1622 303.381 22.6098C303.348 18.0574 303.321 21.7185 303.321 30.7449ZM120.738 14.7308C121.086 14.9979 122.47 15.7206 122.47 15.6359C122.47 15.4891 121.093 14.6634 120.847 14.6625C120.737 14.6616 120.688 14.6926 120.738 14.7308ZM137.018 24.1802L137.022 33.8081L138.007 33.8327L138.991 33.8564L138.063 33.7653L137.136 33.6741L137.075 24.1127L137.015 14.5522L137.018 24.1802ZM218.953 15.4691C218.102 16.2374 216.782 17.9526 216.782 18.2898C216.782 18.3764 217.086 18.0137 217.457 17.4842C217.827 16.9546 218.59 16.1052 219.153 15.5958C219.714 15.0872 220.1 14.668 220.01 14.6661C219.921 14.6634 219.444 15.0252 218.953 15.4691ZM106.553 15.7042C106.042 16.0332 105.623 16.3814 105.622 16.478C105.621 16.6247 106.728 15.9047 107.47 15.2749C107.891 14.9186 107.456 15.1218 106.553 15.7042ZM141.945 24.1145C141.885 29.1336 141.911 33.1647 142.002 33.0726C142.094 32.9815 142.144 28.8747 142.112 23.9478L142.054 14.9897L141.945 24.1145ZM259.556 30.7449C259.556 39.4104 259.584 42.9229 259.617 38.5519C259.649 34.18 259.649 27.0902 259.617 22.7967C259.584 18.5022 259.556 22.0794 259.556 30.7449ZM319.618 15.9959C319.367 16.4889 319.198 16.9291 319.244 16.9756C319.29 17.0212 319.542 16.6174 319.803 16.0788C320.399 14.8512 320.239 14.7792 319.618 15.9959ZM308.35 31.1824L308.36 47.1564L308.874 48.0258C309.47 49.0347 309.944 49.4248 311.183 49.9252C311.846 50.1922 312.075 50.4055 312.062 50.7454C312.053 50.9979 312.127 51.2048 312.226 51.2048C312.988 51.2048 312.31 50.1129 311.349 49.7939C310.286 49.4412 309.438 48.723 308.878 47.7032C308.635 47.2594 308.556 44.1378 308.459 31.1824L308.341 15.2084L308.35 31.1824ZM291.343 16.0834C291.435 16.4443 291.505 17.6756 291.499 18.8194C291.491 20.5136 291.524 20.736 291.68 20.0224C291.901 19.0199 291.718 16.3139 291.393 15.7835C291.236 15.5274 291.223 15.6113 291.343 16.0834ZM123.809 16.8553C124.483 17.5197 125.203 18.3901 125.41 18.7902C125.616 19.1894 125.842 19.4582 125.914 19.3872C126.106 19.1948 124.227 16.8726 123.348 16.2164C122.876 15.8637 123.052 16.1071 123.809 16.8553ZM197.652 16.1927C197.732 16.4944 197.889 16.8881 198.001 17.0686C198.141 17.2964 198.159 17.2299 198.058 16.8498C197.976 16.5491 197.82 16.1544 197.708 15.974C197.567 15.7461 197.55 15.8127 197.652 16.1927ZM276.182 16.4324C275.99 16.8043 275.87 17.1479 275.919 17.1953C275.966 17.2426 276.168 16.9382 276.369 16.519C276.818 15.5748 276.662 15.5028 276.182 16.4324ZM245.6 16.7377C245.8 17.157 246.003 17.4614 246.051 17.414C246.151 17.3137 245.486 15.974 245.337 15.974C245.281 15.974 245.4 16.3176 245.6 16.7377ZM270.856 17.3119C270.721 17.6983 270.649 18.0529 270.696 18.0994C270.743 18.1467 270.891 17.8688 271.025 17.4814C271.16 17.095 271.232 16.7405 271.186 16.6931C271.139 16.6466 270.991 16.9246 270.856 17.3119ZM289.747 18.6371C289.74 19.5147 289.805 20.0087 289.896 19.7763C290.098 19.2614 290.105 17.9554 289.909 17.4605C289.827 17.2545 289.754 17.784 289.747 18.6371ZM189.758 17.7248C189.675 17.9836 189.658 18.2443 189.718 18.3044C189.778 18.3655 189.894 18.2023 189.977 17.9435C190.059 17.6847 190.076 17.424 190.016 17.3639C189.956 17.3037 189.84 17.4659 189.758 17.7248ZM318.908 17.9162C318.822 18.3226 318.764 18.9132 318.777 19.2295C318.793 19.6077 318.868 19.4683 318.997 18.8194C319.106 18.2771 319.164 17.6865 319.128 17.506C319.092 17.3256 318.993 17.5097 318.908 17.9162ZM275.427 18.381C275.291 18.8868 275.221 19.3434 275.274 19.3963C275.326 19.4482 275.476 19.0718 275.606 18.5605C275.736 18.0483 275.804 17.5917 275.758 17.5452C275.712 17.4997 275.562 17.8751 275.427 18.381ZM96.3134 18.4357L95.9661 19.1475L96.4127 18.5997C96.842 18.0738 96.9823 17.7248 96.7645 17.7248C96.7071 17.7248 96.5047 18.0447 96.3134 18.4357ZM192.194 18.4548C191.697 19.6442 191.584 20.314 192.04 19.3662C192.271 18.885 192.468 18.3555 192.477 18.1905C192.49 17.9462 192.555 17.9417 192.826 18.1668C193.105 18.3983 193.137 18.3846 193.022 18.0839C192.809 17.5288 192.528 17.6546 192.194 18.4548ZM246.12 17.8761C246.169 18.4439 246.512 18.926 246.527 18.4493C246.535 18.185 246.443 17.9089 246.323 17.8341C246.203 17.7594 246.112 17.7785 246.12 17.8761ZM282.101 18.1522C281.86 18.2516 281.417 18.6152 281.116 18.9588L280.57 19.5849L281.247 18.9752C282.055 18.2461 283.347 17.9699 283.904 18.4074C284.253 18.6817 284.261 18.6744 283.988 18.3263C283.673 17.9244 282.839 17.8469 282.101 18.1522ZM103.339 18.7683C102.661 19.6752 101.464 21.7267 101.465 21.9792C101.466 22.1067 101.777 21.6693 102.155 21.0067C102.534 20.345 103.088 19.481 103.388 19.0864C103.687 18.6918 103.893 18.3327 103.846 18.2871C103.8 18.2424 103.572 18.4584 103.339 18.7683ZM270.296 19.1593C270.214 19.5986 270.196 20.0069 270.256 20.0671C270.316 20.1272 270.433 19.8173 270.515 19.378C270.598 18.9387 270.616 18.5304 270.556 18.4703C270.496 18.4101 270.379 18.72 270.296 19.1593ZM325.171 19.8037C325.172 20.6458 325.211 20.9639 325.259 20.51C325.306 20.0561 325.305 19.3662 325.257 18.9779C325.209 18.5897 325.17 18.9615 325.171 19.8037ZM189.247 19.245C189.12 19.6123 189.061 19.913 189.119 19.913C189.266 19.913 189.679 18.7765 189.571 18.6681C189.521 18.6179 189.376 18.8786 189.247 19.245ZM198.627 18.8194C198.627 18.9998 198.722 19.2951 198.839 19.4756C199.027 19.7672 199.051 19.7672 199.051 19.4756C199.051 19.2951 198.955 18.9998 198.839 18.8194C198.651 18.5268 198.627 18.5268 198.627 18.8194ZM216.332 19.1803C216.211 19.4993 216.143 19.8565 216.182 19.9741C216.222 20.0917 216.364 19.831 216.498 19.3944C216.779 18.4767 216.659 18.3208 216.332 19.1803ZM284.847 19.0736L285.404 19.5849L284.683 20.2676C283.634 21.2582 283.929 23.6333 285.1 23.6333C285.229 23.6333 285.074 23.3736 284.756 23.0564C283.8 22.1004 284.305 19.913 285.483 19.913C285.929 19.913 285.702 19.4983 285 19.0335L284.289 18.5623L284.847 19.0736ZM128.616 19.1475C128.609 19.3881 128.7 19.7326 128.816 19.913C129.097 20.3478 129.097 19.8009 128.816 19.1475L128.628 18.7091L128.616 19.1475ZM246.821 20.788C246.821 21.3302 246.864 21.5517 246.915 21.281C246.967 21.0094 246.967 20.5665 246.915 20.2958C246.864 20.0251 246.821 20.2466 246.821 20.788ZM275.042 34.3868C274.995 47.314 275.024 48.7641 275.335 48.8835C275.832 49.0739 286.787 48.9974 287.571 48.7978C287.933 48.7057 285.299 48.6191 281.72 48.6046L275.211 48.579L275.153 34.3003L275.095 20.0224L275.042 34.3868ZM318.779 20.8062C318.793 21.2181 318.885 21.8497 318.983 22.2106C319.1 22.6426 319.12 22.4175 319.039 21.5544C318.905 20.1072 318.739 19.6287 318.779 20.8062ZM345.35 20.8426C345.432 21.1142 345.589 21.4314 345.699 21.549C345.809 21.6665 345.788 21.4451 345.653 21.0568C345.376 20.2621 345.12 20.0816 345.35 20.8426ZM115.577 21.1316C114.692 21.7322 113.955 22.5123 113.943 22.8623C113.94 22.9799 114.249 22.6973 114.631 22.2334C115.013 21.7695 115.653 21.2537 116.053 21.086C116.453 20.9192 116.78 20.7342 116.78 20.6759C116.78 20.4398 116.362 20.5984 115.577 21.1316ZM215.853 21.117C215.796 21.4177 215.833 21.6638 215.937 21.6638C216.041 21.6638 216.126 21.4177 216.126 21.117C216.126 20.8153 216.089 20.5692 216.042 20.5692C215.996 20.5692 215.911 20.8153 215.853 21.117ZM129.086 22.5387C129.086 24.1118 129.113 24.2467 129.254 23.4128C129.346 22.8705 129.346 22.0338 129.253 21.5526C129.12 20.8591 129.085 21.0623 129.086 22.5387ZM126.519 23.1968C126.519 24.377 126.591 25.2283 126.679 25.0897C126.768 24.9503 126.84 24.0981 126.84 23.195C126.84 22.2927 126.768 21.4405 126.679 21.3029C126.591 21.1644 126.519 22.0165 126.519 23.1968ZM199.621 21.4451C199.702 21.7458 199.858 22.1396 199.97 22.32C200.111 22.5479 200.128 22.4813 200.026 22.1013C199.946 21.8005 199.789 21.4068 199.677 21.2263C199.537 20.9976 199.519 21.065 199.621 21.4451ZM270.007 33.3706C269.976 40.2307 269.901 46.2377 269.839 46.7189C269.744 47.4544 269.762 47.5118 269.952 47.078C270.101 46.7371 270.159 42.2121 270.12 33.7297L270.062 20.8973L270.007 33.3706ZM290.804 22.0129C290.541 22.5506 290.408 22.9398 290.508 22.8778C290.734 22.7374 291.467 21.219 291.36 21.1124C291.317 21.0696 291.067 21.4742 290.804 22.0129ZM119.999 21.6574C120.202 21.8944 120.412 22.0439 120.465 21.991C120.596 21.8598 120.061 21.2263 119.82 21.2263C119.715 21.2263 119.796 21.4196 119.999 21.6574ZM194.504 22.5078C194.757 23.2515 195.014 23.8111 195.074 23.7509C195.198 23.627 194.499 21.6565 194.223 21.3548C194.124 21.2455 194.25 21.7641 194.504 22.5078ZM280.266 21.6638C280.256 21.9646 280.343 22.3583 280.459 22.5387C280.73 22.9571 280.73 22.5068 280.459 21.6638L280.284 21.117L280.266 21.6638ZM188.044 22.3565C187.577 23.5449 187.711 23.6798 188.226 22.5387C188.444 22.0548 188.574 21.61 188.513 21.5499C188.453 21.4897 188.242 21.8525 188.044 22.3565ZM288.581 22.114C288.308 22.4822 287.773 22.9744 287.391 23.2077C287.009 23.441 286.815 23.6315 286.962 23.6324C287.296 23.6333 288.718 22.3975 289.01 21.8525C289.338 21.2391 289.138 21.3612 288.581 22.114ZM94.5708 22.1013C94.4887 22.3601 94.4705 22.6208 94.5307 22.6809C94.5908 22.7411 94.7075 22.5789 94.7895 22.32C94.8715 22.0612 94.8898 21.8005 94.8296 21.7404C94.7695 21.6802 94.6528 21.8424 94.5708 22.1013ZM190.73 22.2435C190.609 22.5634 190.541 22.9206 190.58 23.0382C190.62 23.1558 190.762 22.8942 190.896 22.4576C191.177 21.5399 191.056 21.3849 190.73 22.2435ZM325.447 22.32C325.67 23.2205 326.54 24.5684 327.425 25.3832C328.224 26.1187 328.219 26.1078 327.315 25.0934C326.796 24.5128 326.134 23.5285 325.842 22.9051C325.55 22.2826 325.372 22.0193 325.447 22.32ZM120.61 23.195C120.61 23.6534 120.684 23.9833 120.774 23.9277C120.864 23.8712 120.938 23.5422 120.938 23.195C120.938 22.8486 120.864 22.5187 120.774 22.4631C120.684 22.4075 120.61 22.7365 120.61 23.195ZM94.0403 24.0872C93.9054 24.7151 93.8371 25.2702 93.8881 25.3212C93.9392 25.3723 94.0905 24.9002 94.2254 24.2722C94.3602 23.6452 94.4286 23.0901 94.3776 23.0391C94.3265 22.9881 94.1752 23.4602 94.0403 24.0872ZM280.863 23.3508C281.113 23.8165 282.187 24.7188 282.866 25.0332C283.047 25.1171 282.948 25.0104 282.648 24.7981C282.347 24.5848 281.764 24.0635 281.352 23.6388C280.879 23.1503 280.7 23.0446 280.863 23.3508ZM319.312 23.4146C319.69 24.8573 321.756 27.3236 323.143 27.9861L323.677 28.2413L323.13 27.8522C321.744 26.8679 320.442 25.4269 319.833 24.2011C319.468 23.4675 319.234 23.1129 319.312 23.4146ZM289.609 23.7181C289.405 23.9979 288.881 24.3971 288.442 24.6049C288.004 24.8136 287.698 25.035 287.76 25.0988C287.824 25.1626 288.203 25.0123 288.603 24.7653C289.411 24.2658 290.496 23.1913 290.18 23.2022C290.069 23.2059 289.812 23.4383 289.609 23.7181ZM100.734 23.5604C100.653 23.6406 100.594 23.9113 100.602 24.1619C100.615 24.5812 100.632 24.5757 100.826 24.0936C101.04 23.5577 100.995 23.2989 100.734 23.5604ZM187.054 24.8519C186.796 25.5263 186.59 26.1934 186.596 26.3329C186.601 26.4723 186.849 25.9565 187.145 25.1854C187.442 24.4153 187.649 23.7482 187.605 23.7044C187.56 23.6598 187.313 24.1765 187.054 24.8519ZM113.35 25.6028C113.35 26.3848 113.389 26.7047 113.438 26.3137C113.487 25.9227 113.487 25.282 113.438 24.8911C113.389 24.5001 113.35 24.82 113.35 25.6028ZM115.886 24.5702C115.123 25.1563 114.799 26.4295 115.238 27.123C115.37 27.3318 115.399 27.1449 115.322 26.5753C115.074 24.7152 117.378 23.6397 118.516 25.0852C118.765 25.4023 118.969 25.5664 118.969 25.4516C118.969 24.5566 116.735 23.9186 115.886 24.5702ZM119.652 25.1645C119.265 25.6466 119.027 26.0376 119.123 26.0358C119.295 26.0312 120.611 24.2895 120.442 24.2895C120.394 24.2895 120.039 24.6833 119.652 25.1645ZM100.293 25.1098C100.074 25.9118 99.938 27.2443 100.121 26.8059C100.33 26.3064 100.601 24.727 100.479 24.727C100.436 24.727 100.352 24.8993 100.293 25.1098ZM128.747 25.2483C128.664 25.4625 128.603 25.8024 128.611 26.003C128.62 26.2454 128.696 26.1898 128.836 25.8398C128.952 25.5491 129.013 25.21 128.972 25.0852C128.93 24.9603 128.829 25.0341 128.747 25.2483ZM283.696 25.4233C283.902 25.5044 284.661 25.5719 285.383 25.5719C286.105 25.5719 286.865 25.5044 287.07 25.4233C287.276 25.3413 286.517 25.2738 285.383 25.2738C284.249 25.2738 283.489 25.3413 283.696 25.4233ZM195.688 25.8216C195.767 26.1223 196.016 26.7339 196.241 27.1805C196.466 27.6271 196.65 28.1374 196.65 28.3161C196.65 28.4947 196.76 28.7071 196.893 28.79C197.215 28.9887 197.009 28.3589 196.189 26.6327C195.835 25.8854 195.609 25.5199 195.688 25.8216ZM93.4826 27.2497C93.3969 28.1666 93.3759 28.9668 93.4361 29.027C93.4962 29.0871 93.6156 28.3862 93.7013 27.4685C93.7879 26.5516 93.8088 25.7523 93.7487 25.6922C93.6885 25.632 93.5691 26.3329 93.4826 27.2497ZM201.26 25.6639C201.246 25.8362 201.874 27.772 202.433 29.2767C202.599 29.7232 202.796 30.2746 202.871 30.5025C202.945 30.7303 203.058 30.8652 203.121 30.8023C203.184 30.7404 202.995 30.0614 202.703 29.294C202.41 28.5275 201.969 27.3582 201.722 26.6965C201.476 26.0348 201.268 25.57 201.26 25.6639ZM328.819 26.4577C329.306 26.8442 330.132 27.2023 330.132 27.0264C330.132 26.99 329.714 26.7494 329.202 26.4915C328.345 26.0604 328.315 26.0576 328.819 26.4577ZM127.955 27.4074C127.523 28.265 127.52 28.2951 127.92 27.7902C128.308 27.3035 128.665 26.4778 128.489 26.4778C128.453 26.4778 128.212 26.8961 127.955 27.4074ZM125.306 27.4776C125.032 27.9196 124.361 28.5649 123.816 28.9112C123.27 29.2575 122.904 29.541 123.003 29.541C123.675 29.541 126.24 27.1112 125.914 26.784C125.852 26.7229 125.579 27.0356 125.306 27.4776ZM186.191 27.298C186.071 27.6289 185.902 28.0973 185.815 28.3379L185.656 28.7754L185.978 28.3379C186.296 27.9068 186.682 26.6965 186.501 26.6965C186.45 26.6965 186.311 26.9672 186.191 27.298ZM188.773 27.3263C188.773 27.5523 188.62 28.1046 188.432 28.553C188.245 29.0023 188.134 29.4134 188.188 29.4662C188.241 29.52 188.404 29.2384 188.549 28.841C189.071 27.4101 189.181 26.9153 188.976 26.9153C188.865 26.9153 188.773 27.1003 188.773 27.3263ZM158.248 27.3527L157.81 27.5414L158.248 27.535C158.489 27.5314 158.931 27.4493 159.232 27.3527L159.779 27.1777L159.232 27.1714C158.931 27.1677 158.489 27.2497 158.248 27.3527ZM330.569 27.3527C330.75 27.4694 331.045 27.5651 331.227 27.5651C331.518 27.5651 331.518 27.5414 331.227 27.3527C331.045 27.2361 330.75 27.1413 330.569 27.1413C330.278 27.1413 330.278 27.1641 330.569 27.3527ZM115.639 27.9023C115.763 28.1447 116.096 28.5375 116.378 28.7763C116.873 29.1946 116.871 29.1864 116.347 28.5548C115.475 27.5058 115.402 27.4375 115.639 27.9023ZM156.497 27.7902L156.06 27.9788L156.497 27.9907C156.738 27.9971 157.082 27.9068 157.263 27.7902C157.697 27.5095 157.152 27.5095 156.497 27.7902ZM332.101 27.7793C332.282 27.9023 332.717 28.0044 333.068 28.0062C333.909 28.0107 333.734 27.8841 332.648 27.7018C332.021 27.597 331.866 27.6188 332.101 27.7793ZM99.68 29.3769C99.6336 30.1288 99.6563 31.4339 99.7293 32.2761C99.8395 33.5374 99.8687 33.2959 99.8969 30.909C99.9334 27.8558 99.8213 27.0665 99.68 29.3769ZM154.965 28.3452C154.418 28.6086 154.4 28.6396 154.856 28.5275C155.475 28.3762 156.173 28.0208 155.841 28.0262C155.721 28.0281 155.326 28.1712 154.965 28.3452ZM334.18 28.1192C334.301 28.1602 334.867 28.2568 335.438 28.3343L336.478 28.4737V29.5546V30.6356L335.001 30.6611C334.189 30.6757 333.228 30.7631 332.867 30.857C332.489 30.9545 333.045 30.9819 334.18 30.9217C336.802 30.7832 336.697 30.8443 336.697 29.4671V28.2851L335.877 28.1502C335.026 28.0098 333.795 27.9871 334.18 28.1192ZM114.068 28.666C114.654 29.9329 116.256 31.2462 117.656 31.6062C117.957 31.6827 117.7 31.495 117.084 31.1879C115.944 30.6191 115.013 29.8454 114.309 28.8775C114.093 28.5804 113.984 28.4856 114.068 28.666ZM126.508 29.3405C126.032 29.8326 125.274 30.425 124.823 30.6583C123.904 31.1323 123.769 31.3118 124.469 31.1286C124.895 31.0174 127.772 28.4728 127.493 28.4546C127.427 28.4509 126.984 28.8492 126.508 29.3405ZM117.321 29.4252C118.294 30.2008 121.866 30.4515 122.527 29.7916C122.693 29.6248 122.511 29.6257 121.904 29.7934C120.802 30.0978 118.615 29.921 117.646 29.4498C117.019 29.1454 116.964 29.1409 117.321 29.4252ZM325.755 29.3769C325.755 29.5273 325.306 29.8344 324.759 30.0596C324.212 30.2847 323.801 30.5052 323.846 30.5499C324.024 30.7276 326.193 29.654 326.193 29.3888C326.193 29.232 326.094 29.1035 325.974 29.1035C325.854 29.1035 325.755 29.2265 325.755 29.3769ZM187.77 30.3357C187.688 30.6811 187.467 31.1405 187.279 31.3556C186.968 31.7137 186.97 31.7356 187.304 31.608C187.645 31.4768 188.22 30.0094 188.012 29.8016C187.961 29.7506 187.852 29.9912 187.77 30.3357ZM197.667 30.8534C197.745 31.1532 197.991 31.7939 198.214 32.2751C198.439 32.7573 198.557 32.9058 198.48 32.606C198.401 32.3052 198.155 31.6654 197.932 31.1833C197.708 30.7012 197.589 30.5526 197.667 30.8534ZM148.728 31.073C148.307 31.3036 148.061 31.4923 148.182 31.4923C148.302 31.4923 148.745 31.3036 149.167 31.073C149.588 30.8424 149.834 30.6538 149.714 30.6538C149.593 30.6538 149.15 30.8424 148.728 31.073ZM178.31 30.8215C178.03 30.9008 178.818 30.97 180.059 30.9773C181.352 30.9846 182.037 30.9254 181.662 30.8388C180.825 30.6456 178.968 30.6365 178.31 30.8215ZM162.357 31.1277C162.686 31.3747 162.716 32.1476 162.673 39.2036C162.646 43.4944 162.686 46.9668 162.762 46.9194C163.036 46.7499 162.94 31.2006 162.664 31.0247C162.229 30.7486 161.969 30.8361 162.357 31.1277ZM167.887 31.0557C167.731 31.3073 167.716 46.6323 167.872 46.7882C167.934 46.8501 167.985 43.3467 167.985 39.0031C167.985 31.6654 168.013 31.0976 168.368 31.0047C168.713 30.9144 168.714 30.9026 168.381 30.8798C168.178 30.8652 167.955 30.9445 167.887 31.0557ZM169.517 31.4312C169.938 31.6189 170.431 31.8796 170.611 32.0118C170.791 32.143 170.742 32.0473 170.502 31.7976C170.261 31.5488 169.769 31.2881 169.408 31.2179C168.777 31.0958 168.782 31.1049 169.517 31.4312ZM183.631 31.258C184.307 31.5479 185.442 31.7712 185.053 31.5387C184.872 31.4303 184.38 31.2808 183.959 31.2061C183.442 31.1149 183.336 31.1314 183.631 31.258ZM330.569 31.433C330.028 31.619 329.487 31.8751 329.366 32.0017C329.214 32.1603 329.282 32.1785 329.585 32.0582C329.826 31.9625 330.515 31.7092 331.117 31.4941C331.719 31.279 332.063 31.1013 331.883 31.0985C331.702 31.0958 331.112 31.2462 330.569 31.433ZM159.888 31.5205C159.649 31.6827 159.737 31.7028 160.217 31.5962C161.021 31.4157 161.196 31.2908 160.637 31.2954C160.406 31.2972 160.069 31.3984 159.888 31.5205ZM175.461 32.3526C174.96 32.8156 174.553 33.3324 174.556 33.501C174.561 33.6924 174.657 33.6432 174.812 33.3706C174.948 33.13 175.413 32.6169 175.844 32.2305C176.275 31.845 176.571 31.5251 176.501 31.5196C176.431 31.515 175.963 31.8896 175.461 32.3526ZM321.228 32.0774L320.613 32.6452L321.324 32.1722C321.976 31.7393 322.188 31.5105 321.939 31.5105C321.885 31.5105 321.565 31.7657 321.228 32.0774ZM119.22 31.9789C119.796 32.0874 120.746 32.0874 121.409 31.9799C122.474 31.8076 122.383 31.7903 120.391 31.7894C118.518 31.7885 118.349 31.8158 119.22 31.9789ZM156.898 32.5622C156.397 32.7664 155.904 33.0152 155.804 33.1155C155.703 33.2157 156.164 33.0845 156.825 32.8238C157.487 32.5622 158.07 32.308 158.12 32.2578C158.306 32.0719 157.783 32.2022 156.898 32.5622ZM187.241 32.3854C187.422 32.5021 187.718 32.5978 187.898 32.5978C188.19 32.5978 188.19 32.5741 187.898 32.3854C187.718 32.2688 187.422 32.174 187.241 32.174C186.95 32.174 186.95 32.1977 187.241 32.3854ZM93.4133 33.0425C93.4087 33.4636 93.4816 34.3003 93.5755 34.9027C93.7414 35.9681 93.7469 35.9736 93.7587 35.1214C93.766 34.6393 93.6931 33.8026 93.5974 33.2613C93.4352 32.3544 93.4215 32.3371 93.4133 33.0425ZM178.739 33.0152C178.045 33.6167 177.738 34.642 178.063 35.27C178.432 35.9818 178.951 36.5441 179.234 36.5386C179.366 36.5359 179.264 36.3637 179.007 36.1559C177.729 35.1205 177.965 33.429 179.473 32.812C179.795 32.6798 179.819 32.6288 179.562 32.6187C179.369 32.6105 178.999 32.7892 178.739 33.0152ZM181.224 32.8284C182.901 33.2348 183.216 33.2804 182.865 33.0662C182.684 32.956 182.044 32.8092 181.443 32.7409C180.381 32.6197 180.375 32.6224 181.224 32.8284ZM188.336 32.6689C188.503 32.8502 190.743 33.706 190.743 33.5894C190.743 33.4773 189.601 32.9742 188.754 32.7126C188.463 32.6233 188.276 32.6032 188.336 32.6689ZM318.944 34.097C317.725 35.4021 316.58 36.9807 316.852 36.9807C316.903 36.9807 317.221 36.5623 317.559 36.051C317.897 35.5398 318.712 34.5545 319.372 33.8628C320.031 33.1711 320.519 32.6051 320.454 32.6051C320.39 32.6051 319.711 33.2759 318.944 34.097ZM326.939 33.3506C325.82 34.1052 323.957 36.0173 323.528 36.854C323.25 37.3972 323.424 37.2176 324.546 35.8041C325.013 35.2171 325.992 34.2966 326.723 33.7589C328.169 32.6971 328.283 32.6051 328.142 32.6051C328.09 32.6051 327.549 32.9405 326.939 33.3506ZM130.701 32.9806C130.152 33.5292 132.276 36.5432 133.211 36.5432C133.357 36.5432 133.082 36.257 132.598 35.9061C131.054 34.7879 129.869 32.4319 131.333 33.3907C131.633 33.5876 131.88 33.6997 131.88 33.6395C131.88 33.4308 130.835 32.8466 130.701 32.9806ZM139.976 33.48C139.558 33.7498 140.008 33.7498 140.851 33.48L141.398 33.305L140.851 33.2859C140.551 33.2759 140.157 33.3634 139.976 33.48ZM183.522 33.48C183.702 33.5967 183.998 33.6924 184.178 33.6924C184.47 33.6924 184.47 33.6687 184.178 33.48C183.998 33.3634 183.702 33.2677 183.522 33.2677C183.23 33.2677 183.23 33.2914 183.522 33.48ZM141.836 33.8163C140.97 34.1162 140.968 34.118 141.726 33.9931C142.148 33.9239 142.64 33.7835 142.821 33.6805C143.302 33.4062 142.837 33.47 141.836 33.8163ZM204.216 33.9175C204.297 34.2182 204.454 34.612 204.565 34.7933C204.706 35.0212 204.723 34.9546 204.621 34.5737C204.541 34.2729 204.384 33.8792 204.272 33.6987C204.132 33.4709 204.115 33.5374 204.216 33.9175ZM191.399 34.0086C191.7 34.169 192.193 34.3622 192.494 34.437C192.794 34.5117 192.647 34.3841 192.165 34.1526C191.175 33.676 190.561 33.5611 191.399 34.0086ZM174.245 34.2638C174.062 34.7423 174.084 35.9426 174.283 36.2552C174.374 36.3974 174.448 35.9298 174.448 35.2153C174.448 33.7953 174.44 33.7571 174.245 34.2638ZM133.521 34.3549C133.762 34.4588 134.155 34.5409 134.396 34.5372C134.748 34.5318 134.727 34.4962 134.287 34.3549C133.538 34.1152 132.963 34.1152 133.521 34.3549ZM139.1 34.3549L138.335 34.5163L139.1 34.5299C139.522 34.5372 140.064 34.4588 140.304 34.3549L140.742 34.1672L140.304 34.1809C140.064 34.1882 139.522 34.2665 139.1 34.3549ZM152.394 34.5892C151.943 34.827 151.574 35.064 151.574 35.116C151.574 35.229 153.27 34.4825 153.472 34.2802C153.747 34.0041 153.208 34.159 152.394 34.5892ZM183.631 34.3549C183.553 34.4816 183.756 34.5728 184.111 34.5709C184.587 34.5682 184.652 34.5199 184.397 34.3549C183.977 34.0833 183.799 34.0833 183.631 34.3549ZM100.079 35.3402C100.152 35.9417 100.292 36.6307 100.392 36.8713C100.612 37.4063 100.376 35.5817 100.123 34.7933C100.015 34.4561 99.9981 34.6666 100.079 35.3402ZM193.15 34.6293C193.32 34.8252 196.696 36.1331 196.789 36.0401C196.835 35.9945 196.207 35.6993 195.394 35.383C193.406 34.6111 193.02 34.4816 193.15 34.6293ZM183.194 35.2308C183.111 35.4896 183.093 35.7503 183.154 35.8104C183.214 35.8706 183.33 35.7084 183.412 35.4495C183.494 35.1907 183.513 34.9291 183.452 34.869C183.391 34.8088 183.276 34.972 183.194 35.2308ZM187.241 35.1196C187.241 35.1561 187.66 35.3967 188.172 35.6546C189.028 36.0857 189.058 36.0884 188.554 35.6883C188.067 35.301 187.241 34.9437 187.241 35.1196ZM149.112 36.0866C148.661 36.2971 148.218 36.5441 148.128 36.6353C147.909 36.8558 149.873 36.093 150.14 35.8542C150.468 35.5607 150.024 35.661 149.112 36.0866ZM199.571 35.887C199.617 36.0675 199.724 36.4366 199.808 36.7072C199.992 37.2915 199.989 37.2924 198.975 36.8686C198.54 36.6863 198.182 36.587 198.182 36.6471C198.182 36.8895 199.803 37.4181 199.985 37.2359C200.096 37.1238 200.033 36.7291 199.834 36.3008C199.644 35.8925 199.526 35.7065 199.571 35.887ZM93.9483 36.8713C94.0239 37.3534 94.1688 37.944 94.27 38.1846C94.3867 38.4626 94.404 38.3022 94.3174 37.7471C94.2418 37.2659 94.0968 36.6744 93.9957 36.4338C93.879 36.1568 93.8617 36.3163 93.9483 36.8713ZM182.455 37.337C182.194 38.0187 182.017 38.613 182.063 38.6585C182.107 38.7032 182.358 38.1828 182.619 37.5011C182.88 36.8194 183.056 36.2242 183.011 36.1786C182.966 36.134 182.716 36.6553 182.455 37.337ZM185.296 36.7865C185.161 37.173 185.089 37.5284 185.137 37.5749C185.183 37.6214 185.332 37.3434 185.467 36.957C185.602 36.5705 185.674 36.2151 185.626 36.1686C185.58 36.1221 185.431 36.4001 185.296 36.7865ZM205.192 36.5432C205.192 36.7237 205.287 37.0199 205.403 37.2003C205.592 37.492 205.616 37.492 205.616 37.2003C205.616 37.0199 205.52 36.7237 205.403 36.5432C205.215 36.2516 205.192 36.2516 205.192 36.5432ZM174.761 37.1402C174.892 37.4081 175.217 37.7335 175.485 37.8638C175.938 38.0825 175.944 38.0771 175.572 37.7763C175.351 37.5995 175.026 37.2741 174.848 37.0536C174.548 36.6808 174.542 36.6872 174.761 37.1402ZM145.556 37.419C145.28 37.5375 145.24 37.6068 145.447 37.6068C145.627 37.6068 145.971 37.522 146.212 37.419C146.488 37.3006 146.528 37.2304 146.321 37.2304C146.141 37.2304 145.796 37.3151 145.556 37.419ZM192.404 38.0315C194.15 39.1553 194.243 39.2099 194.243 39.0987C194.243 38.9584 191.513 37.2003 191.295 37.2003C191.195 37.2003 191.694 37.574 192.404 38.0315ZM316.158 38.273C315.512 39.7732 315.591 39.9892 316.252 38.5337C316.548 37.883 316.752 37.3142 316.707 37.2687C316.662 37.224 316.415 37.6761 316.158 38.273ZM322.681 38.3149C322.43 38.808 322.261 39.2491 322.308 39.2956C322.353 39.3412 322.605 38.9374 322.867 38.3988C323.463 37.1712 323.302 37.0991 322.681 38.3149ZM135.6 37.8465C135.78 37.9686 136.117 38.0698 136.347 38.0716C136.907 38.0762 136.733 37.9513 135.928 37.7708C135.449 37.6642 135.36 37.6843 135.6 37.8465ZM143.149 37.975L141.836 38.2657L143.04 38.1427C143.701 38.0753 144.44 37.9404 144.681 37.8428C145.32 37.584 144.665 37.6405 143.149 37.975ZM177.941 37.9868C177.69 38.1801 177.209 38.2894 176.808 38.2448C176.426 38.2019 176.16 38.2448 176.22 38.3396C176.438 38.6932 177.765 38.5118 178.16 38.0752C178.629 37.5567 178.546 37.5229 177.941 37.9868ZM205.763 38.0743C205.841 38.3751 206.088 39.0149 206.311 39.497C206.534 39.9782 206.654 40.1268 206.575 39.8269C206.498 39.5262 206.251 38.8864 206.028 38.4043C205.804 37.9221 205.686 37.7736 205.763 38.0743ZM138.943 38.4553C139.519 38.5 140.405 38.5 140.912 38.4544C141.421 38.4079 140.95 38.3715 139.867 38.3715C138.783 38.3724 138.368 38.4097 138.943 38.4553ZM94.4678 38.9502C94.4678 39.1306 94.5635 39.4268 94.6801 39.6073C94.8688 39.8989 94.8916 39.8989 94.8916 39.6073C94.8916 39.4268 94.7968 39.1306 94.6801 38.9502C94.4915 38.6585 94.4678 38.6585 94.4678 38.9502ZM101.033 38.9502C101.033 39.1306 101.128 39.4268 101.245 39.6073C101.434 39.8989 101.456 39.8989 101.456 39.6073C101.456 39.4268 101.362 39.1306 101.245 38.9502C101.056 38.6585 101.033 38.6585 101.033 38.9502ZM137.156 38.9064C136.987 38.962 136.926 40.2088 136.957 42.9621L137.002 46.9376L137.135 42.9986C137.207 40.8322 137.285 39.055 137.309 39.0495C137.331 39.0431 137.695 39.0787 138.116 39.1279C138.537 39.1771 138.882 39.168 138.882 39.1079C138.882 38.9657 137.471 38.8007 137.156 38.9064ZM141.119 39.1097L141.935 39.1954L142.001 42.8473L142.066 46.5002L142.115 42.7252L142.165 38.9502L141.234 38.9876L140.304 39.024L141.119 39.1097ZM195.119 39.6939C195.119 39.7504 195.439 40.0202 195.83 40.2945C196.335 40.6481 196.452 40.6809 196.231 40.4075C195.918 40.0174 195.119 39.5043 195.119 39.6939ZM295.699 39.9901C295.639 40.2006 295.527 40.7174 295.449 41.1384C295.371 41.5604 295.253 42.1018 295.186 42.3424C295.12 42.583 295.141 42.7097 295.232 42.6231C295.323 42.5374 295.514 41.8967 295.657 41.2013C295.883 40.0958 295.977 39.9418 296.393 39.9873C296.657 40.0156 296.871 39.9418 296.871 39.8233C296.871 39.435 295.813 39.5854 295.699 39.9901ZM339.213 39.826C338.776 39.9372 339.25 39.9928 340.636 39.9937C342.29 39.9937 342.536 39.9573 341.839 39.8133C340.794 39.5973 340.098 39.6009 339.213 39.826ZM315.362 40.4822C315.278 40.8605 315.26 41.2196 315.32 41.2797C315.38 41.3399 315.498 41.0792 315.581 40.701C315.664 40.3227 315.682 39.9637 315.622 39.9035C315.562 39.8434 315.445 40.104 315.362 40.4822ZM337.001 40.5898C336.399 40.8905 335.617 41.452 335.262 41.8384L334.618 42.5411L335.482 41.8083C335.958 41.4055 336.77 40.8878 337.287 40.659C337.805 40.4303 338.229 40.1988 338.229 40.1441C338.229 39.9874 338.16 40.012 337.001 40.5898ZM343.043 40.0985C343.22 40.2735 345.231 41.1229 345.231 41.0227C345.231 40.9726 344.96 40.793 344.629 40.6253C343.973 40.2918 342.866 39.9245 343.043 40.0985ZM102.489 42.069C103.607 44.1552 108.052 48.1534 109.231 48.1334C109.352 48.1306 108.881 47.8199 108.184 47.4425C106.384 46.4655 104.281 44.4514 103.077 42.5511C101.87 40.6463 101.615 40.4367 102.489 42.069ZM95.5104 41.5212C95.9096 42.4809 96.6743 43.7195 97.2986 44.4213C97.9739 45.1796 97.973 45.1759 97.2275 44.0932C96.8137 43.4907 96.2578 42.5803 95.9925 42.069C95.5122 41.1412 95.2078 40.7958 95.5104 41.5212ZM321.516 41.4757C321.441 41.6707 321.389 42.0936 321.401 42.4153C321.419 42.8847 321.462 42.8318 321.623 42.1455C321.829 41.2697 321.76 40.8395 321.516 41.4757ZM346.678 42.3387C347.338 42.9986 348.075 43.9838 348.315 44.527C348.781 45.5797 349.084 45.8941 348.726 44.9535C348.251 43.704 346.759 41.8238 345.861 41.3435C345.65 41.2305 346.018 41.6789 346.678 42.3387ZM207.161 41.7956C207.161 41.976 207.256 42.2713 207.373 42.4518C207.562 42.7434 207.585 42.7434 207.585 42.4518C207.585 42.2713 207.49 41.976 207.373 41.7956C207.184 41.503 207.161 41.503 207.161 41.7956ZM339.929 41.7354C340.321 41.7837 340.912 41.7828 341.241 41.7327C341.57 41.6825 341.248 41.6434 340.526 41.6443C339.804 41.6452 339.535 41.6862 339.929 41.7354ZM128.52 42.5174C128.105 43.5108 126.847 45.4749 125.927 46.5649C125.519 47.0479 125.639 46.9604 126.202 46.3635C127.233 45.2716 129.189 42.0954 128.968 41.873C128.898 41.8047 128.697 42.0945 128.52 42.5174ZM183.328 42.0507C183.314 42.2512 183.246 42.5967 183.176 42.8163C183.057 43.1964 183.064 43.1973 183.301 42.8282C183.439 42.6131 183.506 42.2686 183.452 42.0617C183.363 41.7226 183.351 41.7217 183.328 42.0507ZM314.954 42.8108C314.786 44.0367 314.813 46.4728 315.006 47.3733C315.083 47.7324 315.146 46.625 315.146 44.9116C315.146 41.4128 315.146 41.4082 314.954 42.8108ZM338.119 42.0143C337.959 42.2731 338.173 42.2731 338.776 42.0143C339.198 41.8329 339.196 41.8256 338.734 41.8101C338.47 41.8019 338.193 41.894 338.119 42.0143ZM199.488 42.8737C199.904 43.2428 200.339 43.5454 200.454 43.5454C200.568 43.5454 200.621 43.5172 200.571 43.4825C200.521 43.447 200.086 43.1444 199.605 42.8099L198.729 42.2011L199.488 42.8737ZM336.355 43.3814L335.712 44.0932L336.423 43.4497C337.086 42.8509 337.235 42.6705 337.066 42.6705C337.028 42.6705 336.709 42.9904 336.355 43.3814ZM345.106 43.7642C346.492 45.3108 346.484 45.3035 345.999 44.5306C345.567 43.8416 345.443 43.7086 344.567 42.9986C344.27 42.758 344.513 43.1025 345.106 43.7642ZM207.711 43.3814C207.793 43.6521 207.95 43.9701 208.06 44.0877C208.17 44.2053 208.149 43.9838 208.015 43.5956C207.737 42.8008 207.481 42.6194 207.711 43.3814ZM182.573 44.239C182.375 44.743 182.249 45.1914 182.293 45.2351C182.337 45.2789 182.537 44.9043 182.737 44.403C182.938 43.9018 183.064 43.4534 183.018 43.4069C182.971 43.3604 182.772 43.735 182.573 44.239ZM201.465 44.352C203.741 46.183 204.079 47.5282 202.645 49.0539C202.135 49.5971 202.108 49.67 202.504 49.4285C204.342 48.3138 203.993 45.9788 201.764 44.4614C200.975 43.9237 200.897 43.8954 201.465 44.352ZM124.768 45.5851C123.686 46.6943 123.507 46.944 124.155 46.4345C124.907 45.8458 126.638 43.9428 126.373 43.9984C126.333 44.0075 125.61 44.7211 124.768 45.5851ZM179.827 44.239C179.813 44.4395 179.745 44.784 179.676 45.0046C179.556 45.3846 179.563 45.3855 179.8 45.0155C179.937 44.8013 180.006 44.4568 179.951 44.2499C179.863 43.9109 179.85 43.91 179.827 44.239ZM294.031 44.743C293.445 45.6908 291.858 47.1026 290.83 47.5902C290.403 47.7934 290.105 48.0131 290.171 48.0787C290.538 48.446 293.782 45.6963 294.447 44.4523C294.85 43.6985 294.543 43.9127 294.031 44.743ZM321.211 44.8587C321.211 45.2798 321.256 45.4521 321.312 45.2415C321.366 45.031 321.366 44.6865 321.312 44.476C321.256 44.2654 321.211 44.4377 321.211 44.8587ZM335.52 44.5388C335.445 44.7348 335.393 45.0583 335.403 45.2598C335.413 45.4603 335.508 45.3345 335.614 44.9791C335.821 44.2882 335.747 43.9464 335.52 44.5388ZM333.552 45.0975C333.477 45.4776 333.426 46.0472 333.44 46.3635C333.454 46.6788 333.554 46.4054 333.662 45.7556C333.872 44.4878 333.783 43.9474 333.552 45.0975ZM98.7386 46.1921C99.5078 46.9896 101.673 48.6511 102.557 49.1241C103.158 49.4449 102.491 48.9035 101.006 47.8645C100.212 47.3095 99.2553 46.5047 98.8789 46.0764C98.5025 45.6471 98.1225 45.2962 98.0341 45.2962C97.9457 45.2962 98.2628 45.699 98.7386 46.1921ZM178.987 46.6141C178.733 47.2129 178.573 47.7032 178.629 47.7032C178.777 47.7032 179.637 45.7145 179.533 45.6116C179.485 45.5642 179.239 46.0153 178.987 46.6141ZM181.824 45.8977C181.16 47.5647 182.498 50.1758 183.973 50.0929C184.146 50.0828 184.021 49.9571 183.696 49.8122C182.199 49.1478 181.523 47.7451 181.969 46.2267C182.188 45.4785 182.084 45.2434 181.824 45.8977ZM338.938 46.5029C338.431 47.284 336.737 47.643 336.369 47.047C336.294 46.9267 336.122 46.8283 335.986 46.8283C335.849 46.8283 335.929 46.9723 336.163 47.1491C336.947 47.7433 338.366 47.5774 338.92 46.8283C339.542 45.9861 339.546 45.987 340.387 47.1801C340.957 47.9894 341.071 48.3239 340.963 48.8762C340.862 49.3902 340.885 49.4804 341.057 49.2353C341.463 48.651 341.309 48.0942 340.41 46.903C339.366 45.5204 339.543 45.5687 338.938 46.5029ZM348.97 46.0618C348.963 46.3033 349.052 46.6478 349.169 46.8283C349.451 47.263 349.451 46.7162 349.169 46.0618L348.981 45.6243L348.97 46.0618ZM254.453 46.4273C254.434 46.7481 254.363 47.1919 254.294 47.4115C254.175 47.7907 254.181 47.7916 254.417 47.4243C254.555 47.211 254.626 46.7672 254.576 46.44L254.485 45.843L254.453 46.4273ZM346.872 48.5636C346.872 49.6317 346.944 50.3918 347.033 50.2533C347.232 49.9398 347.222 47.51 347.02 46.9987C346.938 46.7909 346.871 47.4954 346.872 48.5636ZM321.383 47.3933C321.384 47.7442 321.486 48.1789 321.61 48.3594C321.77 48.5955 321.792 48.4396 321.686 47.8126C321.505 46.7271 321.378 46.553 321.383 47.3933ZM122.414 47.4653C121.514 48.0422 121.39 48.2455 122.183 47.8417C122.566 47.6476 122.942 47.3888 123.016 47.2676C123.192 46.9832 123.139 47.0005 122.414 47.4653ZM136.475 47.9228C136.322 48.291 135.891 48.8443 135.515 49.1505C135.14 49.4576 135.032 49.6107 135.274 49.4923C135.987 49.1414 137.113 47.6121 136.85 47.3496C136.797 47.2958 136.628 47.5537 136.475 47.9228ZM167.994 47.3423C167.97 47.8618 168.732 48.9737 169.356 49.3273L170.064 49.7283L169.37 49.0985C168.989 48.7522 168.525 48.1735 168.34 47.8126C168.154 47.4517 167.999 47.2402 167.994 47.3423ZM161.74 48.415C161.394 48.9409 161.292 49.2088 161.507 49.032C161.868 48.7358 162.622 47.4845 162.44 47.4845C162.393 47.4845 162.078 47.9028 161.74 48.415ZM123.893 48.4906C123.221 49.0894 123.175 49.1678 123.693 48.826C124.304 48.4232 125.052 47.6986 124.849 47.7068C124.804 47.7087 124.374 48.0614 123.893 48.4906ZM227.765 48.6027C227.367 49.0557 226.63 49.5715 226.124 49.7511C225.572 49.9461 225.386 50.0828 225.655 50.0929C226.214 50.1147 227.698 49.1632 228.237 48.4369C228.871 47.5847 228.566 47.6914 227.765 48.6027ZM268.921 48.5626C268.496 49.0739 267.84 49.5469 267.28 49.7456C266.725 49.9416 266.528 50.0828 266.794 50.0929C267.421 50.1175 268.948 49.0812 269.391 48.3302C269.892 47.4845 269.764 47.5473 268.921 48.5626ZM177.816 48.4925C177.209 49.1441 176.606 49.4394 175.206 49.7711C174.053 50.0437 173.669 51.2813 174.718 51.3433C175.13 51.367 175.139 51.3551 174.772 51.2731C173.87 51.0708 174.215 50.1685 175.261 49.9944C176.486 49.7912 179.369 47.9219 178.458 47.9219C178.397 47.9219 178.107 48.1789 177.816 48.4925ZM209.561 47.9556C209.561 48.189 210.339 48.95 210.984 49.3483C211.345 49.5706 211.542 49.6609 211.421 49.5479C210.18 48.3858 209.561 47.8563 209.561 47.9556ZM253.237 48.8497C252.429 49.6919 252.521 49.7985 253.401 49.0402C253.748 48.7404 254.332 47.8882 254.154 47.9402C254.12 47.9502 253.707 48.3594 253.237 48.8497ZM349.46 49.3446C349.461 50.1867 349.501 50.5048 349.548 50.051C349.596 49.5971 349.595 48.9072 349.546 48.5189C349.498 48.1306 349.459 48.5025 349.46 49.3446ZM260.657 48.7622C261.394 49.5843 262.282 50.1102 262.929 50.1102C263.22 50.1102 263.393 50.2897 263.458 50.6598C263.552 51.1957 263.554 51.1947 263.527 50.6279C263.505 50.1375 263.351 50.0026 262.541 49.7648C262.014 49.6098 261.226 49.156 260.791 48.7568L260 48.0313L260.657 48.7622ZM288.994 48.3594C288.702 48.5481 288.702 48.5718 288.994 48.5718C289.174 48.5718 289.469 48.477 289.65 48.3594C289.941 48.1717 289.941 48.148 289.65 48.148C289.469 48.148 289.174 48.2427 288.994 48.3594ZM301.904 49.0493C301.483 49.4184 301.337 49.6208 301.578 49.4986C301.978 49.2963 302.969 48.3476 302.758 48.3685C302.71 48.374 302.325 48.6802 301.904 49.0493ZM110.873 48.7978C111.053 48.9144 111.447 49.001 111.748 48.991L112.295 48.9728L111.748 48.7978C110.905 48.5271 110.455 48.5271 110.873 48.7978ZM119.298 48.8415C118.936 48.9664 117.41 49.1377 115.906 49.2234L113.17 49.3802L115.468 49.4139C117.518 49.4449 119.835 49.0985 120.232 48.7021C120.406 48.528 120.062 48.579 119.298 48.8415ZM234.927 48.8725C235.24 49.2626 236.039 49.7748 236.039 49.5861C236.039 49.5296 235.719 49.259 235.327 48.9846C234.823 48.631 234.706 48.5982 234.927 48.8725ZM315.283 48.9071C315.283 49.1478 315.367 49.5415 315.471 49.7821L315.659 50.2196V49.7821C315.659 49.5415 315.574 49.1478 315.471 48.9071L315.283 48.4697V48.9071ZM143.579 49.269C143.909 49.5278 144.538 49.865 144.976 50.0181C145.561 50.2214 145.77 50.4173 145.757 50.75C145.748 50.9997 145.822 51.2048 145.921 51.2048C146.693 51.2048 146.002 50.112 145.025 49.7876C144.433 49.5907 143.831 49.2881 143.686 49.114C143.542 48.94 143.324 48.7978 143.202 48.7978C143.081 48.7978 143.25 49.0092 143.579 49.269ZM103.871 49.7794C103.871 49.9051 105.106 50.4365 105.859 50.6351C106.149 50.7117 105.857 50.5258 105.21 50.2232C103.967 49.6417 103.871 49.6098 103.871 49.7794ZM121.322 50.091C120.186 50.6215 119.979 50.8931 121.048 50.4501C121.53 50.2505 122.016 49.9944 122.131 49.8805C122.405 49.6071 122.299 49.6344 121.322 50.091ZM133.849 49.8678C133.447 49.978 133.295 50.1758 133.275 50.6142C133.25 51.1729 133.255 51.1756 133.344 50.6598C133.402 50.3307 133.588 50.1093 133.809 50.1075C134.011 50.1056 134.325 50.0081 134.505 49.8915C134.875 49.6527 134.657 49.6445 133.849 49.8678ZM159.272 49.9042C158.884 50.0601 158.781 50.2487 158.835 50.7108L158.904 51.3141L161.038 51.3269L163.172 51.3387L161.092 51.264C158.817 51.182 158.107 50.5531 159.615 49.9571C159.946 49.8267 160.118 49.7156 159.998 49.7101C159.878 49.7046 159.551 49.7921 159.272 49.9042ZM170.611 49.8814C170.791 50.0036 171.111 50.1056 171.322 50.1075C171.586 50.1093 171.715 50.2979 171.735 50.7126C171.762 51.2649 171.773 51.2713 171.863 50.7965C171.98 50.1776 171.81 49.9953 170.939 49.804C170.459 49.6982 170.371 49.7192 170.611 49.8814ZM201.082 49.8987C200.811 50.0072 200.589 50.1348 200.589 50.1822C200.589 50.3444 201.69 50.0582 201.809 49.865C201.956 49.629 201.728 49.639 201.082 49.8987ZM211.968 49.875C212.149 50.0008 212.518 50.1056 212.789 50.1075C213.172 50.1093 213.288 50.2442 213.311 50.7126C213.338 51.2649 213.349 51.2713 213.439 50.7965C213.56 50.1548 213.378 49.9771 212.406 49.7921C211.841 49.6846 211.727 49.7064 211.968 49.875ZM236.476 49.8814C236.657 50.0036 236.993 50.1056 237.224 50.1075C237.784 50.1111 237.609 49.9862 236.804 49.8067C236.325 49.6991 236.237 49.7192 236.476 49.8814ZM251.466 49.8286C251.225 49.8869 250.937 50.0209 250.824 50.1275C250.711 50.2341 250.947 50.2278 251.346 50.1129C252.474 49.7903 252.569 49.5634 251.466 49.8286ZM300.154 49.8678C299.752 49.978 299.599 50.1758 299.579 50.6142C299.555 51.1729 299.559 51.1756 299.649 50.6598C299.706 50.3307 299.893 50.1093 300.113 50.1075C300.316 50.1056 300.629 50.0081 300.81 49.8915C301.18 49.6527 300.961 49.6445 300.154 49.8678ZM340.197 50.2196C339.915 50.5203 339.559 50.7673 339.406 50.7673C339.254 50.7673 339.069 50.8657 338.994 50.986C338.92 51.1063 338.965 51.2048 339.094 51.2048C339.334 51.2048 341.066 49.6891 340.838 49.6791C340.769 49.6755 340.481 49.9188 340.197 50.2196ZM266.017 50.6579C266.017 50.9587 266.102 51.2048 266.206 51.2048C266.309 51.2048 266.347 50.9587 266.29 50.6579C266.232 50.3563 266.148 50.1102 266.101 50.1102C266.055 50.1102 266.017 50.3563 266.017 50.6579ZM106.824 50.986C107.479 51.2667 108.026 51.2667 107.59 50.986C107.41 50.8694 107.065 50.7792 106.824 50.7855L106.387 50.7974L106.824 50.986ZM108.575 51.4235C108.816 51.5265 109.259 51.6085 109.56 51.6049L110.107 51.5985L109.56 51.4235C109.259 51.3269 108.816 51.2449 108.575 51.2421L108.138 51.2348L108.575 51.4235ZM117.547 51.4235L117.11 51.6112L117.547 51.6231C117.788 51.6304 118.132 51.5402 118.313 51.4235C118.747 51.1419 118.201 51.1419 117.547 51.4235ZM349.1 51.7261C349.018 51.9403 348.957 52.2802 348.965 52.4807C348.974 52.7222 349.05 52.6676 349.19 52.3176C349.306 52.0268 349.367 51.6869 349.325 51.5629C349.284 51.4381 349.183 51.5119 349.1 51.7261ZM112.361 51.9311C113.388 52.0414 114.721 52.0442 115.425 51.9384C116.46 51.7835 116.151 51.7507 113.608 51.7434C110.622 51.7361 110.59 51.7407 112.361 51.9311ZM322.911 51.7616C322.911 52.2483 325.243 54.9059 326.302 55.6259C326.664 55.872 326.475 55.6451 325.885 55.1238C325.293 54.6015 324.383 53.5935 323.861 52.8845C323.338 52.1745 322.911 51.6696 322.911 51.7616ZM345.789 52.8535C345.393 53.589 343.49 55.5184 342.386 56.3049C341.87 56.6722 341.88 56.6722 342.566 56.3013C343.887 55.5895 346.646 52.5473 346.293 52.1936C346.24 52.1408 346.013 52.4379 345.789 52.8535ZM348.202 54.1039C347.183 56.1855 346.543 57.1917 346.016 57.538C345.527 57.8579 345.611 57.8743 347.387 57.8042C349.369 57.7258 349.752 57.5854 349.534 57.0176C349.438 56.7697 349.099 56.6749 348.302 56.6749C347.235 56.6749 346.798 56.2931 347.422 55.9076C347.653 55.7645 348.379 54.4302 348.734 53.4951C349.09 52.5618 348.787 52.9072 348.202 54.1039ZM317.585 54.4867C317.798 54.8476 318.052 55.1429 318.151 55.1429C318.248 55.1429 318.111 54.8476 317.844 54.4867C317.577 54.1258 317.321 53.8305 317.278 53.8305C317.233 53.8305 317.372 54.1258 317.585 54.4867ZM318.699 55.8137C318.97 56.1226 319.191 56.4425 319.191 56.5255C319.191 56.6075 268.381 56.6749 206.279 56.6749H93.3668V57.2218V57.7695H207.002H320.638L321.392 58.3319C322.18 58.9215 323.179 59.5021 322.802 59.1512C322.332 58.7165 321.016 57.816 320.34 57.4679C319.949 57.2664 319.628 56.9748 319.628 56.8199C319.628 56.6649 319.309 56.2493 318.918 55.8957C318.348 55.3789 318.305 55.3625 318.699 55.8137ZM329.148 57.0523C329.749 57.2354 330.291 57.4524 330.351 57.5344C330.633 57.9217 331.912 58.2653 332.157 58.0193C332.491 57.6857 337.175 57.6793 337.508 58.012C337.755 58.258 339.297 57.9044 339.541 57.5453C339.601 57.4569 340.143 57.2354 340.745 57.0523C341.776 56.7397 341.442 56.7205 334.946 56.7205C328.45 56.7205 328.116 56.7397 329.148 57.0523ZM143.149 57.1124C143.446 57.24 143.095 57.2974 142.055 57.2901C140.908 57.2828 140.688 57.2382 141.179 57.1124C142.064 56.8873 142.625 56.8873 143.149 57.1124ZM158.139 57.1124C158.474 57.22 157.546 57.2947 155.732 57.3065C153.75 57.3184 152.885 57.2546 153.105 57.1124C153.495 56.8609 157.353 56.8609 158.139 57.1124ZM333.696 58.3692C334.393 58.4121 335.475 58.4121 336.103 58.3683C336.73 58.3237 336.161 58.2881 334.837 58.289C333.513 58.289 332.999 58.3255 333.696 58.3692ZM344.465 58.7721C344.104 59.0746 342.922 59.7673 341.839 60.3123C340.756 60.8573 340.115 61.2346 340.417 61.1517C341.683 60.8036 345.914 58.2298 345.231 58.2234C345.171 58.2234 344.826 58.4695 344.465 58.7721ZM325.009 60.3825C325.26 60.6195 327.316 61.3148 327.43 61.2009C327.476 61.1544 326.906 60.9093 326.162 60.655C325.418 60.4007 324.9 60.2786 325.009 60.3825ZM328.053 61.4889C328.707 61.7705 329.254 61.7705 328.819 61.4889C328.638 61.3723 328.294 61.282 328.053 61.2893L327.616 61.3012L328.053 61.4889ZM338.666 61.4889C338.232 61.7705 338.777 61.7705 339.432 61.4889L339.869 61.3012L339.432 61.2893C339.191 61.282 338.847 61.3723 338.666 61.4889ZM330.132 61.9191C330.674 62.1005 332.258 62.2189 332.083 62.0658C332.033 62.0221 331.451 61.93 330.788 61.8617C330.012 61.7815 329.779 61.8015 330.132 61.9191ZM335.822 61.9264L334.837 62.0795L335.822 62.0914C336.363 62.0968 337.052 62.023 337.353 61.9264L337.9 61.7514L337.353 61.7623C337.052 61.7687 336.363 61.8425 335.822 61.9264ZM133.932 64.7198C133.725 64.8556 133.074 66.5389 131.818 70.1872C131.683 70.5782 131.494 70.8981 131.398 70.8981C131.302 70.8981 131.223 71.1005 131.223 71.3474C131.223 71.7548 131.337 71.7895 132.481 71.7302C133.805 71.661 133.843 71.6172 133.509 70.5154C133.369 70.0505 133.422 70.0232 134.457 70.0232C135.592 70.0232 135.963 70.3185 135.583 70.9182C135.146 71.6081 135.361 71.774 136.694 71.774C138.092 71.774 138.379 71.4687 137.705 70.6967C137.539 70.5072 137.182 69.7115 136.911 68.9295C136.641 68.1466 136.351 67.4084 136.268 67.2881C136.184 67.1678 135.982 66.6264 135.819 66.0842C135.371 64.6031 134.771 64.1702 133.932 64.7198ZM142.029 64.8547C139.927 65.8071 139.319 69.0635 140.924 70.766C142.578 72.5195 145.884 72.0747 145.884 70.0988C145.884 69.1255 145.169 69.0799 144.681 70.0232C143.865 71.5999 141.916 70.6265 141.788 68.5786C141.642 66.219 144.136 64.5403 144.665 66.6438C144.9 67.5825 145.993 67.3218 145.993 66.3266C145.993 64.9458 143.704 64.0955 142.029 64.8547ZM148.783 64.6979C148.397 64.8538 148.442 65.6467 148.839 65.6467C149.111 65.6467 149.167 66.0696 149.167 68.1394C149.167 70.1535 149.103 70.6566 148.839 70.7587C148.415 70.9218 148.413 71.6892 148.836 71.8515C149.015 71.9207 150.295 71.9162 151.68 71.8414L154.2 71.7065V70.756C154.2 69.6924 153.291 69.2895 153.042 70.2419C152.948 70.5992 152.743 70.6794 151.922 70.6794H150.917V69.6951V68.7099H152.026C153.686 68.7099 153.623 67.547 151.957 67.4403C150.296 67.3337 150.347 66.0842 152.011 66.0842C152.838 66.0842 153.105 66.1644 153.105 66.4123C153.105 66.6173 153.312 66.7413 153.653 66.7413C154.152 66.7413 154.2 66.6583 154.2 65.7889V64.8365L152.394 64.6961C150.345 64.5366 149.181 64.5366 148.783 64.6979ZM229.146 64.7016C226.44 65.4471 225.972 69.9877 228.449 71.4514C229.823 72.2634 232.383 71.6983 232.68 70.5181C232.988 69.2923 231.916 68.8985 231.334 70.0232C230.429 71.7722 228.489 70.5782 228.489 68.2724C228.489 65.9648 230.538 64.7708 231.399 66.5763C231.924 67.6782 232.975 67.2033 232.673 66.0012C232.433 65.0443 230.495 64.3306 229.146 64.7016ZM260.811 64.697C258.872 65.1108 257.865 68.6716 259.187 70.4424C260.535 72.2479 263.954 72.3299 264.397 70.5664C264.703 69.3451 263.66 68.853 263.128 69.9685C262.62 71.0339 260.891 70.8416 260.352 69.6605C259.81 68.4711 260.25 66.3293 261.104 66.0012C262.085 65.6248 263.07 65.921 263.205 66.6319C263.354 67.4166 264.362 67.2125 264.443 66.3813C264.556 65.2156 262.611 64.3142 260.811 64.697ZM103.681 65.2639C103.584 65.5346 103.129 66.8397 102.672 68.1631C102.215 69.4873 101.707 70.7259 101.543 70.9154C100.981 71.5662 101.197 71.774 102.435 71.774C103.642 71.774 104.119 71.4969 103.676 71.0549C103.03 70.4087 103.396 70.0232 104.655 70.0232H105.878L105.731 70.8981L105.582 71.774H106.805C108.111 71.774 108.387 71.4504 107.724 70.6967C107.556 70.5072 107.016 69.1865 106.523 67.7639C105.425 64.5977 105.537 64.7718 104.618 64.7718C104.03 64.7718 103.82 64.882 103.681 65.2639ZM115.031 65.1855C115.031 65.4134 115.178 65.6567 115.359 65.726C115.623 65.8271 115.687 66.3193 115.687 68.2423C115.687 70.1654 115.623 70.6575 115.359 70.7587C114.35 71.146 115.027 71.774 116.452 71.774C117.959 71.774 118.366 71.3593 117.536 70.6703C116.719 69.9931 117.23 69.2658 118.609 69.1437C120.856 68.9441 121.783 66.8953 120.298 65.4115C119.467 64.5804 115.031 64.3899 115.031 65.1855ZM123.435 65.0233C123.349 65.1627 123.466 65.4125 123.695 65.5792C124.382 66.0805 124.447 70.0815 123.781 70.7915C122.998 71.6245 123.367 71.774 126.216 71.774H128.841L128.774 70.8435C128.696 69.7717 127.809 69.315 127.571 70.2246C127.477 70.5874 127.279 70.6794 126.603 70.6794H125.752V68.1631C125.752 66.0723 125.808 65.6467 126.081 65.6467C126.264 65.6467 126.409 65.4526 126.409 65.2092C126.409 64.7007 123.737 64.5339 123.435 65.0233ZM161.29 65.0233C161.204 65.1618 161.304 65.3997 161.511 65.551C161.732 65.7123 162.062 66.5754 162.314 67.6508C163.261 71.6983 163.243 71.6573 163.995 71.7321C164.675 71.7995 165.233 70.6521 165.616 68.3973C165.799 67.3191 166.149 67.9461 166.918 70.7341C167.182 71.6911 167.26 71.774 167.889 71.774C168.663 71.774 168.621 71.8706 169.545 67.8896C169.862 66.5189 170.17 65.6467 170.338 65.6467C170.488 65.6467 170.611 65.4498 170.611 65.2092C170.611 64.8201 170.465 64.7718 169.298 64.7718C168.041 64.7718 167.328 65.3915 168.237 65.6941C168.425 65.757 168.419 66.1489 168.211 67.2471C167.906 68.8676 167.654 69.2412 167.488 68.3253C167.339 67.5105 166.691 65.1974 166.545 64.9622C166.365 64.6697 165.356 64.7353 165.268 65.0452C165.226 65.1956 165.07 65.7615 164.92 66.3029C164.134 69.1556 164.034 69.2039 163.606 66.9436C163.422 65.9739 163.444 65.7652 163.752 65.5401C164.353 65.0999 163.872 64.7718 162.624 64.7718C161.972 64.7718 161.377 64.8839 161.29 65.0233ZM173.018 65.2092C173.018 65.4526 173.164 65.6467 173.346 65.6467C173.619 65.6467 173.674 66.0696 173.674 68.1394C173.674 70.1535 173.611 70.6566 173.346 70.7587C172.295 71.1624 173.021 71.774 174.55 71.774C176.213 71.774 176.47 71.537 175.634 70.7796C174.64 69.881 175.122 69.0389 176.629 69.0389C178.135 69.0389 178.617 69.881 177.624 70.7796C176.787 71.537 177.044 71.774 178.708 71.774C180.236 71.774 180.962 71.1624 179.911 70.7587C179.646 70.6566 179.583 70.1535 179.583 68.1394C179.583 66.0696 179.638 65.6467 179.911 65.6467C180.093 65.6467 180.239 65.4526 180.239 65.2092C180.239 64.8164 180.093 64.7718 178.83 64.7718C177.266 64.7718 176.845 65.067 177.599 65.6358C177.97 65.9156 178.068 66.1808 178.013 66.755L177.941 67.5068H176.629H175.316L175.249 66.816C175.202 66.3293 175.322 65.9939 175.655 65.6831C176.355 65.0315 176.006 64.7718 174.428 64.7718C173.164 64.7718 173.018 64.8164 173.018 65.2092ZM182.735 65.0233C182.637 65.1819 182.762 65.4143 183.047 65.6039C183.767 66.0823 183.765 70.0642 183.043 70.8325C182.279 71.6464 182.722 71.794 185.727 71.7257L188.445 71.6646V70.7888C188.445 69.7589 187.69 69.4053 187.248 70.2292C187.06 70.581 186.793 70.6794 186.03 70.6794H185.053V69.706V68.7336L186.202 68.667C187.957 68.5659 188.057 67.6727 186.325 67.5734L185.162 67.5068V66.7413C185.162 65.7725 186.476 65.4781 187.172 66.2901C187.925 67.1696 188.759 66.5435 188.516 65.2812C188.42 64.7809 183.033 64.5412 182.735 65.0233ZM191.18 65.1855C191.18 65.4134 191.328 65.6567 191.508 65.726C191.773 65.8271 191.836 66.3193 191.836 68.2423C191.836 70.1654 191.773 70.6575 191.508 70.7587C190.5 71.146 191.177 71.774 192.603 71.774C194.102 71.774 194.516 71.3602 193.697 70.6794C193.26 70.3176 193.273 69.2312 193.715 69.0617C194.689 68.688 195.557 69.3943 195.557 70.5627C195.557 71.3967 195.995 71.774 196.965 71.774C197.542 71.774 197.782 71.0822 197.307 70.7888C197.187 70.7149 197.088 70.4379 197.088 70.1745C197.087 69.9111 196.888 69.3697 196.646 68.9715C196.245 68.3143 196.235 68.2059 196.537 67.7748C197.058 67.032 196.955 66.0103 196.293 65.3487C195.519 64.5749 191.18 64.4364 191.18 65.1855ZM200.022 65.0233C199.936 65.1618 200.029 65.3942 200.228 65.5401C200.75 65.921 200.759 70.3486 200.24 70.9218C199.603 71.6254 200.066 71.774 202.9 71.774H205.622V70.7888C205.622 69.6814 204.723 69.2832 204.415 70.2529C204.294 70.6357 204.121 70.6922 203.252 70.6366L202.231 70.57V69.6951V68.8193L203.379 68.7536C204.923 68.6643 205.192 67.6162 203.671 67.6162C202.226 67.6162 201.344 66.4296 202.468 65.9985C203.253 65.6968 204.277 65.8572 204.419 66.3029C204.723 67.2635 205.622 66.8552 205.622 65.7561V64.7718H202.9C201.082 64.7718 200.126 64.8556 200.022 65.0233ZM212.71 65.0297C212.616 65.181 212.747 65.4198 213.025 65.6039C213.456 65.89 213.5 66.1079 213.5 67.9817C213.5 70.9483 214.176 71.8724 216.345 71.8724C218.513 71.8724 219.189 70.9483 219.189 67.9817C219.189 66.1079 219.233 65.89 219.665 65.6039C220.44 65.0889 219.961 64.7718 218.411 64.7718C217.147 64.7718 217.001 64.8164 217.001 65.2092C217.001 65.4526 217.147 65.6467 217.33 65.6467C217.866 65.6467 217.802 69.8254 217.258 70.3176C216.729 70.7961 215.845 70.7778 215.394 70.2793C214.886 69.7179 214.856 65.6467 215.36 65.6467C215.543 65.6467 215.688 65.4526 215.688 65.2092C215.688 64.6952 213.016 64.5348 212.71 65.0297ZM237.454 65.8107C237.251 66.3822 236.938 67.2444 236.76 67.7256C236.581 68.2068 236.286 69.0444 236.103 69.5857C235.92 70.1271 235.633 70.6493 235.467 70.745C234.642 71.2208 235.134 71.774 236.384 71.774H237.605L237.533 70.9528L237.461 70.1326L238.631 70.066L239.801 69.9986L239.652 70.8863L239.501 71.774H240.724C242.031 71.774 242.309 71.4468 241.638 70.6967C241.467 70.5072 240.961 69.2686 240.514 67.9443C239.438 64.759 239.445 64.7718 238.565 64.7718C237.881 64.7718 237.798 64.8492 237.454 65.8107ZM244.439 65.0297C244.345 65.181 244.477 65.4198 244.755 65.6039C245.349 65.9985 245.506 70.6794 244.924 70.6794C244.582 70.6794 244.287 71.2691 244.476 71.5744C244.756 72.0292 247.418 71.8068 247.418 71.3292C247.418 71.085 247.27 70.828 247.09 70.7587C246.737 70.6238 246.59 67.835 246.935 67.835C247.03 67.835 247.625 68.7208 248.257 69.8045C249.353 71.6828 249.44 71.774 250.162 71.774H250.918V68.9377C250.918 66.3357 250.957 66.0659 251.379 65.6722C252.068 65.0315 251.709 64.7718 250.14 64.7718C248.876 64.7718 248.73 64.8164 248.73 65.2092C248.73 65.4526 248.876 65.6467 249.058 65.6467C249.322 65.6467 249.387 65.9803 249.387 67.3391V69.0307L248.879 68.2688C248.599 67.8495 247.994 66.8917 247.534 66.1388L246.699 64.7718H245.649C245.071 64.7718 244.527 64.8875 244.439 65.0297ZM267.111 65.2092C267.111 65.4526 267.257 65.6467 267.44 65.6467C267.713 65.6467 267.768 66.0696 267.768 68.1394C267.768 70.1535 267.705 70.6566 267.44 70.7587C266.437 71.1433 267.107 71.774 268.521 71.774C270.121 71.774 270.43 71.527 269.743 70.7961C268.83 69.8227 269.189 69.0507 270.592 68.9715C271.39 68.9259 271.834 68.997 271.956 69.1902C272.28 69.6997 272.156 70.4397 271.706 70.6794C270.644 71.2481 271.169 71.774 272.801 71.774C274.326 71.774 275.032 71.2135 274.004 70.8198C273.739 70.7177 273.676 70.2109 273.676 68.1703C273.676 66.0732 273.731 65.6467 274.004 65.6467C274.187 65.6467 274.333 65.4526 274.333 65.2092C274.333 64.8128 274.187 64.7718 272.801 64.7718C271.415 64.7718 271.269 64.8128 271.269 65.2092C271.269 65.4498 271.415 65.6467 271.593 65.6467C271.944 65.6467 272.23 66.4615 272.106 67.1067C272.042 67.4412 271.814 67.5068 270.719 67.5068H269.409L269.338 66.755C269.283 66.1808 269.381 65.9156 269.752 65.6358C270.506 65.067 270.084 64.7718 268.521 64.7718C267.257 64.7718 267.111 64.8164 267.111 65.2092ZM279.171 65.2639C279.071 65.5346 278.618 66.8397 278.165 68.1631C277.712 69.4873 277.207 70.6493 277.041 70.745C276.218 71.2235 276.712 71.774 277.962 71.774H279.185L279.037 70.8981L278.889 70.0232H280.131H281.373L281.226 70.8981L281.077 71.774H282.3C283.608 71.774 283.886 71.445 283.212 70.6967C283.04 70.5072 282.558 69.367 282.141 68.1631C280.898 64.584 281.009 64.7718 280.131 64.7718C279.526 64.7718 279.315 64.8802 279.171 65.2639ZM285.273 65.6476C285.273 66.7404 285.795 67.0612 286.36 66.3147C286.58 66.0213 286.904 65.8527 287.152 65.9001C287.817 66.0277 287.906 70.3249 287.251 70.6758C286.181 71.2481 286.701 71.774 288.337 71.774C289.862 71.774 290.568 71.2135 289.54 70.8198C289.026 70.622 289.062 66.1279 289.58 65.9301C289.82 65.8372 290.055 65.9529 290.262 66.2646C290.903 67.2289 291.823 66.5417 291.581 65.2812C291.512 64.9194 291.206 64.8748 288.389 64.8201L285.273 64.7599V65.6476ZM300.786 65.3596C300.654 65.6986 300.203 66.96 299.785 68.1631C299.368 69.367 298.886 70.5072 298.714 70.6967C298.04 71.445 298.318 71.774 299.626 71.774H300.848L300.699 70.8863L300.548 69.9986L301.718 70.066L302.889 70.1326L302.825 70.9528L302.76 71.774H303.973C305.225 71.774 305.708 71.2126 304.865 70.7405C304.689 70.642 304.3 69.8245 304.001 68.9241C302.643 64.8246 302.675 64.8875 301.812 64.8128C301.127 64.7535 300.997 64.8228 300.786 65.3596ZM307.593 65.1855C307.593 65.4134 307.741 65.6567 307.921 65.726C308.186 65.8271 308.249 66.3193 308.249 68.2423C308.249 70.1654 308.186 70.6575 307.921 70.7587C306.87 71.1624 307.596 71.774 309.125 71.774C309.967 71.774 310.657 71.6838 310.657 71.5726C310.657 71.1242 310.373 70.6794 310.087 70.6794C309.855 70.6794 309.781 70.3112 309.781 69.1483C309.781 67.1906 309.866 67.2179 311.316 69.645C312.463 71.5662 312.562 71.6674 313.34 71.7321L314.158 71.8004V68.7236C314.158 66.1343 314.21 65.6467 314.486 65.6467C314.668 65.6467 314.814 65.4526 314.814 65.2092C314.814 64.8164 314.668 64.7718 313.405 64.7718C311.835 64.7718 311.478 65.0315 312.166 65.6722C312.512 65.9958 312.626 66.3649 312.626 67.1687C312.626 68.75 312.44 69.0854 312 68.3016C311.803 67.9525 311.248 67.0165 310.767 66.2227L309.891 64.779L308.742 64.7754C307.76 64.7718 307.593 64.831 307.593 65.1855ZM317.221 65.2092C317.221 65.4526 317.367 65.6467 317.55 65.6467C317.823 65.6467 317.878 66.0732 317.878 68.1703C317.878 70.2109 317.815 70.7177 317.55 70.8198C317.369 70.889 317.221 71.1314 317.221 71.3593C317.221 71.908 320.783 71.9736 321.895 71.4459C323.716 70.5819 324.1 67.0694 322.544 65.5136L321.802 64.7718H319.511C317.367 64.7718 317.221 64.7991 317.221 65.2092ZM330.669 65.0069C330.589 65.1363 330.731 65.4362 330.984 65.6722C331.671 66.312 331.678 70.1645 330.992 70.7505C330.125 71.4942 330.559 71.6646 333.323 71.6646H335.931V70.7888C335.931 69.7507 335.175 69.4062 334.728 70.241C334.531 70.6074 334.312 70.6903 333.674 70.6375L332.867 70.57L332.805 68.3426C332.749 66.3047 332.783 66.0787 333.212 65.6786C333.893 65.0443 333.56 64.7718 332.101 64.7718C331.393 64.7718 330.749 64.8775 330.669 65.0069ZM338.448 65.2092C338.448 65.4526 338.593 65.6467 338.776 65.6467C339.048 65.6467 339.104 66.0696 339.104 68.1394C339.104 70.1535 339.041 70.6566 338.776 70.7587C337.772 71.1433 338.444 71.774 339.857 71.774C341.447 71.774 341.766 71.527 341.096 70.8134C340.407 70.0797 340.407 66.3147 341.096 65.6722C341.784 65.0315 341.427 64.7718 339.857 64.7718C338.593 64.7718 338.448 64.8164 338.448 65.2092ZM343.918 65.2028C343.918 65.4471 344.055 65.6467 344.223 65.6467C344.979 65.6467 345.101 70.2811 344.355 70.6794C342.993 71.4085 343.8 71.774 346.775 71.774H349.632L349.565 70.8435C349.487 69.7717 348.6 69.315 348.363 70.2246C348.264 70.5983 348.071 70.6794 347.284 70.6794H346.325V69.6951V68.7099H347.396C349.131 68.7099 349.149 67.7001 347.416 67.5761C346.453 67.5078 346.434 67.4923 346.434 66.7413C346.434 65.7715 347.834 65.4435 348.295 66.3038C348.742 67.1396 349.498 66.795 349.498 65.7561V64.8811L346.707 64.8201C344.03 64.7608 343.918 64.7763 343.918 65.2028ZM135.162 65.3022C135.162 65.4726 134.915 65.9055 134.615 66.2637C134.314 66.621 134.068 67.1149 134.068 67.361C134.068 67.608 133.969 67.8696 133.849 67.9443C133.413 68.2141 133.62 68.9186 134.177 69.058C135.012 69.2677 135.381 69.0243 135.381 68.2633C135.381 67.2398 136.037 67.5068 136.479 68.7108C136.678 69.2522 136.913 69.892 137.002 70.1326C137.091 70.3732 137.248 70.7304 137.352 70.9273C137.506 71.218 137.393 71.3073 136.745 71.4122C135.797 71.5662 135.71 71.5097 136.019 70.9328C136.468 70.0925 136.11 69.8045 134.617 69.8045C133.174 69.8045 132.612 70.3085 133.228 71.0512C133.409 71.2691 133.362 71.3365 133.027 71.3365C132.164 71.3365 131.985 70.581 132.536 69.2576C132.636 69.017 132.886 68.2779 133.091 67.6162C133.296 66.9545 133.551 66.2418 133.657 66.0331C133.762 65.8235 133.849 65.5036 133.849 65.3213C133.849 65.0989 134.065 64.9905 134.505 64.9905C134.927 64.9905 135.162 65.1017 135.162 65.3022ZM145.126 65.3441C145.73 65.7387 145.881 66.7413 145.337 66.7413C145.157 66.7413 145.009 66.6046 145.009 66.4378C145.009 66.0495 144.066 65.428 143.477 65.428C142.215 65.428 141.289 66.765 141.289 68.5896C141.289 69.6586 141.237 69.8045 140.851 69.8045C140.456 69.8045 140.414 69.6586 140.414 68.2724C140.414 65.6057 143.038 63.9752 145.126 65.3441ZM152.23 65.3186C152.23 65.5492 151.998 65.6467 151.453 65.6467H150.674L150.741 66.6866L150.807 67.7256L151.738 67.793C153.16 67.896 152.818 68.4912 151.337 68.4912C150.468 68.4912 150.334 70.5591 151.183 70.8726L151.667 71.0522L151.196 71.3037C150.125 71.877 148.508 71.5361 149.276 70.8981C149.532 70.6858 149.604 70.0815 149.604 68.1293C149.604 66.1124 149.541 65.6084 149.276 65.5073C148.503 65.2101 149.063 64.9905 150.589 64.9905C151.902 64.9905 152.23 65.0561 152.23 65.3186ZM119.063 66.209C119.897 67.0439 119.19 68.1594 117.919 68.0127C117.316 67.9434 116.996 66.981 117.305 66.1726C117.465 65.7579 118.636 65.7825 119.063 66.209ZM194.989 66.1516C195.862 66.7896 194.751 68.1603 193.689 67.7529C193.364 67.6281 193.23 66.2956 193.514 66.0112C193.757 65.7697 194.572 65.8472 194.989 66.1516ZM321.508 66.3193C322.6 67.2261 321.601 70.6794 320.247 70.6794H319.628V68.2442V65.808L320.414 65.9356C320.846 66.0058 321.338 66.1789 321.508 66.3193ZM302.342 68.4073C302.342 68.585 302.115 68.7099 301.795 68.7099C301.174 68.7099 301.077 68.2314 301.505 67.2909L301.762 66.7258L302.052 67.4148C302.211 67.7939 302.342 68.2405 302.342 68.4073ZM104.964 67.1514C104.964 67.2562 105.026 67.6499 105.101 68.0263C105.227 68.6534 105.19 68.7099 104.664 68.7099C104.018 68.7099 103.99 68.6215 104.329 67.649C104.549 67.0183 104.964 66.693 104.964 67.1514ZM135.162 68.5167C135.162 68.6233 134.915 68.7099 134.615 68.7099C133.995 68.7099 133.969 68.6187 134.318 67.6226L134.566 66.9071L134.864 67.6153C135.028 68.0045 135.162 68.41 135.162 68.5167ZM239.102 68.205C239.102 68.6023 238.982 68.7099 238.538 68.7099C237.986 68.7099 237.915 67.9006 238.396 67.0903C238.573 66.7932 239.102 67.629 239.102 68.205ZM280.592 68.0063C280.722 68.6561 280.689 68.7099 280.159 68.7099C279.528 68.7099 279.449 68.4365 279.811 67.485C280.08 66.7786 280.387 66.9828 280.592 68.0063Z" fill="#6C63FF"/>
<path d="M44.8788 70.8664L16.953 70.0706C16.953 70.0706 19.055 57.4582 12.3109 53.9582C7.7142 51.5707 3.63458 40.4193 4.79511 32.8313C4.8109 32.7303 4.82669 32.6294 4.84445 32.5304C5.43261 29.1333 7.1142 26.5023 10.3293 25.7877C20.7228 23.4794 28.1399 25.269 28.1399 25.269C28.1399 25.269 29.857 25.2908 32.4011 25.7699C32.4919 25.7857 32.5827 25.8035 32.6735 25.8233C39.8755 27.2388 53.188 32.279 53.7643 50.175C54.5578 74.7623 44.8788 70.8624 44.8788 70.8624V70.8664Z" fill="#3F3D56"/>
<path d="M32.5746 25.521C32.527 26.818 32.2351 28.107 31.7031 29.332C30.5993 31.872 28.5864 33.8116 26.0374 34.7944C18.4024 37.7407 9.49285 34.8184 4.98648 31.6499C4.96861 31.7499 4.61128 33.6495 4.5954 33.7515C6.59051 35.1286 16.3556 36.4557 18.2078 36.4557C21.0208 36.4557 23.7286 35.9853 26.1366 35.0546C28.7551 34.0438 30.8217 32.0502 31.9552 29.4421C32.4972 28.1971 32.795 26.8901 32.8486 25.573C32.7572 25.553 32.6659 25.535 32.5746 25.519V25.521Z" fill="#6C63FF"/>
<path d="M34.6693 27.2516L30.1541 15.9271C30.1541 15.9271 35.5744 6.66147 31.3155 5.63306C27.0566 4.60266 22.6695 10.1361 22.6695 10.1361C22.6695 10.1361 14.5402 7.30448 11.4446 9.6209C11.4446 9.6209 6.2827 2.41404 3.18714 3.82985C0.0895802 5.24566 4.28841 15.4479 4.28841 15.4479C4.28841 15.4479 -2.10294 24.8054 2.8007 30.2091C7.70434 35.6147 26.1556 39.9899 34.6713 27.2496L34.6693 27.2516Z" fill="#3F3D56"/>
<path d="M44.2966 64.5864C45.8053 65.272 47.3809 65.9695 49.0311 65.9034C50.6813 65.8372 52.416 64.7528 52.6734 63.0891C52.807 62.2292 52.5437 61.3091 52.8659 60.5033C53.3001 59.4209 54.6988 59.0019 55.7852 59.3728C56.8736 59.7436 57.6712 60.7017 58.2448 61.714C59.3175 63.6103 59.7458 66.0998 58.5965 67.948C57.6005 69.5496 55.7106 70.2752 53.9543 70.8966C51.6125 71.7245 48.9997 72.5443 46.7306 71.528C44.4498 70.5057 43.2062 67.5531 44.051 65.1617" fill="#3F3D56"/>
<path d="M19.1757 22.2672C19.1757 22.2672 16.4137 21.227 14.6207 22.5277L16.6923 25.519L19.1777 22.2691L19.1757 22.2672Z" fill="#6C63FF"/>
<path d="M4.5954 36.4557L9.64514 64.1315C9.64514 64.1315 2.00265 72.1399 11.8287 71.9981C21.6548 71.8584 18.7886 66.6606 18.7886 66.6606L15.649 42.6376" fill="#3F3D56"/>
<path d="M11.1864 72C8.4585 72 6.80924 71.3863 6.281 70.1727C5.31927 67.9633 8.45043 64.5957 8.98674 64.0414L5.50677 43.8122L5.90397 43.7468L9.41822 64.174L9.34563 64.2453C9.30934 64.2809 5.72856 67.8979 6.65198 70.0163C7.12579 71.1051 8.7327 71.6377 11.4385 71.6001C15.1987 71.5486 17.6222 70.7745 18.4488 69.3629C19.1928 68.0919 18.4065 66.6903 18.3984 66.6764L18.3803 66.6428L18.3742 66.6051L16.1362 50.2602L16.5354 50.2068L18.7694 66.5161C18.9025 66.7635 19.598 68.1909 18.8016 69.557C17.8883 71.121 15.4124 71.9426 11.4445 71.996C11.3578 71.996 11.2731 71.996 11.1884 71.996L11.1864 72Z" fill="#2F2E41"/>
<path d="M17.3549 36.4557L22.4047 64.1315C22.4047 64.1315 14.7622 72.1399 24.5882 71.9981C34.4143 71.8584 31.5481 66.6606 31.5481 66.6606L28.4085 42.6376" fill="#3F3D56"/>
<path d="M24.1421 72C21.4804 72 19.8712 71.3814 19.3558 70.1583C18.4174 67.9354 21.4666 64.5452 21.9938 63.9806L19.9656 53.0059L20.3532 52.9321L22.4188 64.1102L22.346 64.1841C22.3106 64.22 18.8168 67.8656 19.7178 70.0006C20.1801 71.0981 21.7499 71.6368 24.388 71.5969C28.0588 71.5451 30.4254 70.7649 31.23 69.3382C31.9559 68.0531 31.1867 66.6484 31.1788 66.6344L31.1591 66.6005L28.0155 42.8893L28.405 42.8354L31.5388 66.4728C31.6686 66.7222 32.3473 68.1609 31.5703 69.5377C30.6791 71.1141 28.2634 71.9421 24.3919 71.996C24.3073 71.996 24.2247 71.996 24.1421 71.996V72Z" fill="#2F2E41"/>
</svg>
